<svg viewBox="0 0 225 226" fill="none" xmlns="http://www.w3.org/2000/svg">
<path d="M220.239 108.003C220.239 167.551 171.965 215.825 112.417 215.825C52.8687 215.825 4.59521 167.551 4.59521 108.003C4.59521 48.4544 52.8687 0.180908 112.417 0.180908C171.965 0.180908 220.239 48.4544 220.239 108.003ZM49.7309 108.003C49.7309 142.623 77.7964 170.689 112.417 170.689C147.038 170.689 175.103 142.623 175.103 108.003C175.103 73.3821 147.038 45.3165 112.417 45.3165C77.7964 45.3165 49.7309 73.3821 49.7309 108.003Z" fill="#A2E6CB"/>
<path d="M1.54928 186.17C1.51789 186.17 1.45513 186.138 1.42375 186.107C1.36098 186.044 1.36098 185.95 1.45513 185.887L104.357 97.3897C104.42 97.3269 104.514 97.3269 104.577 97.3897C104.64 97.4524 104.64 97.5466 104.577 97.6093L1.6748 186.107C1.61204 186.138 1.58066 186.17 1.54928 186.17Z" fill="#505052"/>
<path d="M80.4752 187.049L83.99 162.602H50.568C50.1914 162.602 49.8462 162.884 49.7834 163.261L48.0574 173.994C47.9946 174.402 47.618 174.715 47.2101 174.715H43.1304C42.7538 174.715 42.44 174.966 42.3458 175.343L40.0236 187.017L80.4752 187.049Z" fill="#FFD561"/>
<path d="M82.923 174.904H47.1473C47.0531 174.904 46.9904 174.841 46.9904 174.747C46.9904 174.653 47.0531 174.59 47.1473 174.59H82.923C83.0171 174.59 83.0799 174.653 83.0799 174.747C83.0799 174.841 83.0171 174.904 82.923 174.904Z" fill="#505052"/>
<path d="M83.3634 187.489L102.381 57.7548C102.538 56.7192 101.722 55.8091 100.686 55.8091C99.839 55.8091 99.1486 56.4054 98.9917 57.2527L77.4321 187.489H83.3634Z" fill="#FFD561"/>
<path d="M83.5195 187.645H77.2744L98.8653 57.2205C99.0223 56.3104 99.7754 55.6514 100.717 55.6514C101.25 55.6514 101.784 55.9024 102.129 56.3104C102.474 56.7184 102.631 57.2519 102.568 57.8167L83.5195 187.645ZM77.651 187.331H83.237L102.223 57.754C102.286 57.3146 102.16 56.8439 101.878 56.5301C101.596 56.2162 101.156 55.9966 100.717 55.9966C99.9637 55.9966 99.3047 56.5301 99.1792 57.2832L77.651 187.331Z" fill="#505052"/>
<path d="M103.471 53.9986C103.698 52.5255 102.924 51.1837 101.742 51.0017C100.56 50.8197 99.418 51.8663 99.1912 53.3394C98.9643 54.8125 99.7385 56.1543 100.92 56.3363C102.102 56.5183 103.244 55.4717 103.471 53.9986Z" fill="#FFD561"/>
<path d="M101.187 56.5301C101.093 56.5301 100.999 56.5301 100.905 56.4988C100.277 56.4046 99.7438 56.028 99.3986 55.4004C99.0534 54.8041 98.9279 54.0509 99.0534 53.2978C99.179 52.5446 99.5242 51.8856 100.026 51.4148C100.528 50.9441 101.187 50.7244 101.784 50.8186C103.039 51.0069 103.886 52.4505 103.667 53.9882L103.51 53.9568L103.667 53.9882C103.541 54.7414 103.196 55.4004 102.694 55.8711C102.223 56.3105 101.721 56.5301 101.187 56.5301ZM101.47 51.1324C101.031 51.1324 100.591 51.3207 100.215 51.6659C99.7438 52.0739 99.4614 52.7015 99.3359 53.3605C99.2103 54.0196 99.3359 54.71 99.6497 55.2435C99.9635 55.777 100.403 56.0908 100.936 56.1849C101.47 56.2791 102.003 56.0908 102.443 55.6828C102.913 55.2748 103.196 54.6472 103.321 53.9882C103.541 52.6074 102.819 51.3207 101.721 51.1638C101.627 51.1324 101.564 51.1324 101.47 51.1324Z" fill="#505052"/>
<path d="M99.0542 56.8448C97.7989 55.8092 94.3469 57.0958 93.1857 57.0017C90.9262 56.782 89.2629 51.0391 85.246 49.3758C79.9738 47.1791 74.8585 51.0705 75.392 51.0391C80.4759 50.6625 82.5785 52.8592 82.2647 52.7965C77.8398 52.0747 74.7016 55.1188 75.2351 55.0874C77.9967 54.8991 79.2834 55.1501 80.8525 57.0017C82.5785 59.0729 85.6854 62.8702 88.8864 63.3723C93.6565 64.1568 98.1127 62.5877 98.1127 62.5877L99.0542 56.8448Z" fill="#FF6D54"/>
<path d="M91.6473 63.7481C90.7372 63.7481 89.7958 63.6853 88.8543 63.5284C85.6533 62.9949 82.6092 59.3546 80.7891 57.1892L80.7263 57.095C79.22 55.3063 78.0588 55.0552 75.2658 55.2435C75.1403 55.2435 75.0775 55.1807 75.0775 55.1494C75.0147 55.0238 75.1089 54.8983 75.1403 54.8355C75.5796 54.1765 78.2785 52.168 81.9502 52.6074C81.2912 52.0739 79.1886 50.9128 75.4227 51.1952C75.2972 51.1952 75.2344 51.1324 75.2344 51.101C75.1717 50.9755 75.2972 50.85 75.3286 50.8186C76.1445 49.9399 80.7577 47.3352 85.3395 49.2495C87.5362 50.1596 88.9798 52.1994 90.2979 54.0196C91.3649 55.4946 92.2749 56.7812 93.2478 56.8754C93.593 56.9068 94.2206 56.7812 94.9738 56.6557C96.4802 56.3733 98.3317 56.0281 99.2104 56.7498L99.2732 56.8126L98.3003 62.7438L98.2062 62.7752C98.112 62.7752 95.2249 63.7481 91.6473 63.7481ZM76.5211 54.8669C78.5296 54.8669 79.6593 55.3063 80.946 56.8754L81.0087 56.9695C82.672 58.978 85.7788 62.7125 88.8857 63.2146C93.2164 63.905 97.2961 62.6811 97.9551 62.4614L98.8652 56.8754C98.0493 56.3105 96.3546 56.6243 94.9424 56.9068C94.1893 57.0323 93.5616 57.1578 93.1536 57.1264C92.0239 57.0323 91.0824 55.6829 89.984 54.1451C88.7288 52.3563 87.2852 50.3479 85.1826 49.5006C80.8204 47.6804 76.7094 50.0654 75.7365 50.85C80.1928 50.5989 82.2326 52.325 82.4209 52.6702C82.4837 52.7643 82.4523 52.8585 82.4209 52.8898L82.3582 52.984H82.2326C78.6551 52.3877 75.9876 54.3334 75.4227 54.9297C75.8307 54.8983 76.1759 54.8669 76.5211 54.8669Z" fill="#505052"/>
<path d="M92.0554 57.2832C89.4193 57.2832 87.7561 56.1535 87.6619 56.0907C87.5991 56.0279 87.5678 55.9338 87.6305 55.871C87.6933 55.8083 87.7874 55.7769 87.8502 55.8396C87.8816 55.871 90.0469 57.346 93.3421 56.8752C93.4362 56.8752 93.499 56.9066 93.5304 57.0008C93.5618 57.0949 93.499 57.1577 93.4048 57.1891C92.9341 57.2518 92.4634 57.2832 92.0554 57.2832Z" fill="#505052"/>
<path d="M220.283 188.368C220.283 188.368 200.01 205.565 187.395 216.078C185.01 218.055 182.907 219.813 181.244 221.162C177.698 224.049 175.438 225.367 170.856 225.179C161.285 224.802 149.14 224.175 135.834 223.453C128.522 223.045 120.865 222.606 113.082 222.135C100.215 221.35 87.0032 220.503 74.5131 219.656C50.0663 217.992 28.3185 216.266 17.1778 214.917C13.7258 214.509 10.5248 212.438 9.01846 209.111C6.53927 203.713 2.80479 194.738 0.576657 188.493C-0.270662 186.139 0.325601 186.014 1.54951 186.014L219.436 185.951C220.723 185.92 221.288 187.552 220.283 188.368Z" fill="#FFD561"/>
<path d="M171.735 225.335C171.452 225.335 171.17 225.335 170.887 225.303C161.661 224.927 149.861 224.331 135.865 223.577C128.302 223.169 120.644 222.73 113.113 222.259C100.058 221.475 86.7204 220.628 74.5441 219.78C47.7123 217.96 27.3453 216.265 17.2088 215.041C13.5057 214.602 10.3989 212.405 8.92393 209.142C6.50751 203.901 2.74164 194.863 0.482128 188.524C0.042777 187.3 -0.0199883 186.609 0.231069 186.201C0.482127 185.825 0.984242 185.825 1.5805 185.825L219.467 185.762C220.126 185.762 220.691 186.17 220.911 186.766C221.13 187.394 220.942 188.053 220.44 188.461C220.22 188.618 200.01 205.784 187.551 216.171C185.009 218.274 182.938 220 181.4 221.255C177.886 224.08 175.689 225.335 171.735 225.335ZM219.436 186.076L1.54912 186.139C0.952861 186.139 0.607657 186.17 0.450746 186.39C0.262453 186.672 0.356597 187.331 0.733184 188.429C2.9927 194.769 6.75856 203.775 9.17499 209.048C10.6186 212.186 13.6313 214.351 17.2088 214.759C27.3453 215.983 47.7123 217.646 74.5441 219.498C86.7204 220.345 100.058 221.192 113.113 221.977C120.644 222.416 128.302 222.856 135.865 223.295C149.893 224.048 161.661 224.644 170.887 225.021C175.501 225.209 177.666 223.891 181.149 221.036C182.687 219.78 184.758 218.086 187.3 215.952C199.79 205.595 220 188.429 220.189 188.241C220.66 187.833 220.691 187.268 220.565 186.892C220.44 186.515 220.063 186.076 219.436 186.076Z" fill="#505052"/>
<path d="M146.817 194.769L141.702 208.137L135.833 223.421C116.439 222.354 94.5658 221.004 74.5126 219.655L78.9375 208.137L84.5235 193.545C84.7746 192.886 85.4022 192.446 86.0926 192.446H145.217C146.441 192.478 147.256 193.67 146.817 194.769Z" fill="white"/>
<path d="M135.959 223.577H135.834C115.561 222.448 93.7814 221.13 74.5128 219.812H74.2931L84.3668 193.513C84.6492 192.792 85.3396 192.321 86.0928 192.321H145.217C145.844 192.321 146.409 192.635 146.755 193.137C147.1 193.639 147.163 194.298 146.974 194.863L135.959 223.577ZM74.7324 219.498C93.907 220.816 115.561 222.134 135.739 223.264L146.692 194.706C146.88 194.235 146.817 193.702 146.535 193.294C146.252 192.886 145.782 192.635 145.28 192.635H86.0928C85.4651 192.635 84.8689 193.043 84.6492 193.639L74.7324 219.498Z" fill="#505052"/>
<path d="M146.817 194.769L141.702 208.137H78.9375L84.5235 193.545C84.7746 192.886 85.4022 192.446 86.0926 192.446H145.217C146.441 192.478 147.257 193.67 146.817 194.769Z" fill="#5A558D"/>
<path d="M141.796 208.294H78.6864L84.3666 193.513C84.649 192.792 85.3394 192.321 86.0926 192.321H145.217C145.844 192.321 146.409 192.635 146.754 193.137C147.1 193.639 147.162 194.298 146.974 194.863L141.796 208.294ZM79.1571 207.98H141.608L146.692 194.706C146.88 194.235 146.817 193.702 146.535 193.294C146.252 192.886 145.781 192.635 145.279 192.635H86.0926C85.465 192.635 84.8687 193.043 84.649 193.639L79.1571 207.98Z" fill="#505052"/>
<path d="M90.8628 203.493C89.1054 203.493 87.6619 202.049 87.6619 200.292C87.6619 198.534 89.1054 197.091 90.8628 197.091C92.6202 197.091 94.0638 198.534 94.0638 200.292C94.0638 202.049 92.6202 203.493 90.8628 203.493ZM90.8628 197.373C89.2624 197.373 87.9757 198.691 87.9757 200.26C87.9757 201.83 89.2624 203.148 90.8628 203.148C92.4633 203.148 93.75 201.83 93.75 200.26C93.75 198.691 92.4633 197.373 90.8628 197.373Z" fill="#505052"/>
<path d="M192.478 202.865L187.426 216.077C185.041 218.054 182.938 219.812 181.275 221.161C177.729 224.048 175.469 225.366 170.888 225.178C161.316 224.801 149.171 224.174 135.865 223.452C128.553 223.044 120.896 222.605 113.113 222.134L115.372 216.234L120.958 201.641C121.21 200.982 121.837 200.543 122.528 200.543H190.878C192.07 200.574 192.886 201.767 192.478 202.865Z" fill="white"/>
<path d="M171.735 225.335C171.452 225.335 171.17 225.335 170.887 225.304C161.661 224.927 149.861 224.331 135.865 223.577C128.302 223.17 120.645 222.73 113.113 222.259H112.893L120.801 201.61C121.084 200.888 121.774 200.417 122.528 200.417H190.878C191.506 200.417 192.07 200.731 192.416 201.233C192.761 201.735 192.824 202.395 192.635 202.959L187.551 216.171L187.52 216.203C184.978 218.305 182.907 220.031 181.369 221.287C177.886 224.08 175.689 225.335 171.735 225.335ZM113.301 221.977C120.77 222.416 128.365 222.856 135.834 223.264C149.861 224.017 161.63 224.613 170.856 224.99C175.25 225.178 177.509 223.954 181.118 221.004C182.656 219.749 184.727 218.054 187.238 215.952L192.29 202.771C192.478 202.3 192.416 201.767 192.133 201.359C191.851 200.951 191.38 200.7 190.878 200.7H122.528C121.9 200.7 121.304 201.076 121.084 201.704L113.301 221.977Z" fill="#505052"/>
<path d="M192.478 202.865L188.304 213.755H116.314L120.958 201.673C121.209 201.014 121.837 200.574 122.527 200.574H190.878C192.07 200.574 192.886 201.767 192.478 202.865Z" fill="#FF6D54"/>
<path d="M188.399 213.912H116.063L120.77 201.61C121.052 200.888 121.743 200.417 122.496 200.417H190.846C191.474 200.417 192.039 200.731 192.384 201.233C192.729 201.735 192.792 202.395 192.604 202.959L188.399 213.912ZM116.533 213.598H188.179L192.321 202.834C192.51 202.363 192.447 201.83 192.164 201.422C191.882 201.014 191.411 200.763 190.909 200.763H122.527C121.9 200.763 121.303 201.139 121.084 201.767L116.533 213.598Z" fill="#505052"/>
<path d="M127.297 210.554C125.54 210.554 124.096 209.11 124.096 207.353C124.096 205.595 125.509 204.121 127.297 204.121C129.086 204.121 130.498 205.564 130.498 207.322C130.498 209.079 129.055 210.554 127.297 210.554ZM127.297 204.434C125.697 204.434 124.41 205.752 124.41 207.322C124.41 208.891 125.697 210.209 127.297 210.209C128.898 210.209 130.185 208.891 130.185 207.322C130.185 205.752 128.898 204.434 127.297 204.434Z" fill="#505052"/>
<path d="M182.374 177.823H73.0699C72.4422 177.823 72.1598 177.039 72.6305 176.631C79.1266 171.39 104.264 149.485 108.03 122.622C109.975 108.783 104.609 95.8531 99.0229 86.6581C95.6337 81.0721 92.1503 76.8355 90.1732 74.6074C89.3886 73.6973 89.6711 72.2851 90.738 71.783L118.982 58.1945C120.426 57.5041 122.12 57.7238 123.313 58.7594C125.478 60.6423 129.275 64.0316 133.826 68.6761C136.117 71.0298 138.627 73.6973 141.232 76.6472C148.262 84.6497 156.013 94.8175 162.415 106.429C166.965 114.682 170.48 122.779 173.179 130.374C173.461 131.189 173.744 131.974 174.026 132.759C176.537 140.133 178.263 146.975 179.518 153C182.562 168.001 182.374 177.823 182.374 177.823Z" fill="white"/>
<path d="M182.53 178.011H73.069C72.7238 178.011 72.4099 177.791 72.2844 177.446C72.1589 177.101 72.253 176.755 72.5355 176.504C101.627 152.968 106.962 129.305 107.903 122.59C109.88 108.468 104.106 95.2872 98.8965 86.7198C95.4445 81.0396 91.8669 76.7403 90.0781 74.6691C89.6701 74.1983 89.5132 73.6021 89.6074 72.9744C89.7329 72.3782 90.1095 71.8447 90.6744 71.5936L118.918 58.0051C120.393 57.2833 122.182 57.5344 123.437 58.6014C125.76 60.6099 129.463 63.9677 133.95 68.5495C136.524 71.1856 139.003 73.8531 141.357 76.5206C149.893 86.2491 157.016 96.26 162.54 106.334C166.745 113.96 170.354 122.025 173.304 130.31C173.586 131.126 173.869 131.91 174.151 132.726C176.41 139.348 178.231 146.158 179.643 152.968C182.656 167.749 182.499 177.697 182.499 177.791L182.53 178.011ZM120.77 57.9424C120.205 57.9424 119.64 58.0679 119.107 58.3189L90.8627 71.9074C90.3919 72.1271 90.0467 72.5665 89.9526 73.0686C89.8584 73.5707 89.984 74.1042 90.3292 74.4808C92.1493 76.552 95.7269 80.8514 99.2103 86.5629C104.451 95.193 110.257 108.436 108.248 122.652C106.648 134.107 100.999 145.938 91.5217 157.832C83.8958 167.403 75.862 174.245 72.7865 176.755C72.5668 176.912 72.5668 177.163 72.6296 177.32C72.6924 177.477 72.8493 177.665 73.1317 177.665H182.216C182.216 176.347 182.153 166.807 179.36 153.062C177.98 146.252 176.128 139.442 173.9 132.852C173.617 132.067 173.366 131.251 173.053 130.467C170.103 122.213 166.494 114.148 162.32 106.522C156.797 96.4797 149.704 86.4688 141.168 76.7717C138.846 74.1042 136.335 71.4367 133.762 68.8006C129.274 64.2188 125.571 60.8923 123.249 58.8838C122.559 58.2562 121.649 57.9424 120.77 57.9424Z" fill="#505052"/>
<path d="M133.888 68.6758L99.054 86.6578C95.6647 81.0718 92.1813 76.8352 90.2042 74.6071C89.4196 73.697 89.7021 72.2848 90.7691 71.7827L119.013 58.1942C120.457 57.5038 122.151 57.7235 123.344 58.7591C125.541 60.642 129.306 64.0313 133.888 68.6758Z" fill="#5A558D"/>
<path d="M98.9905 86.8768L98.9278 86.7513C95.4757 81.0711 91.8982 76.7718 90.1094 74.7319C89.7014 74.2612 89.5445 73.6649 89.6387 73.0373C89.7642 72.441 90.1408 71.9075 90.7057 71.6565L118.95 58.068C120.425 57.3462 122.213 57.5973 123.469 58.6643C125.791 60.6727 129.494 64.0306 133.982 68.6124L134.139 68.7693L98.9905 86.8768ZM120.77 57.9425C120.205 57.9425 119.64 58.068 119.107 58.319L90.8626 71.9075C90.3918 72.1272 90.0466 72.5666 89.9525 73.0687C89.8583 73.5708 89.9839 74.1043 90.3291 74.4809C92.1492 76.5207 95.6954 80.7887 99.1161 86.4375L133.605 68.6124C129.212 64.1248 125.54 60.8296 123.249 58.8525C122.559 58.2563 121.648 57.9425 120.77 57.9425Z" fill="#505052"/>
<path d="M102.882 78.5918C100.842 78.5918 99.2104 76.9286 99.2104 74.9201C99.2104 72.9117 100.874 71.2484 102.882 71.2484C104.891 71.2484 106.554 72.9117 106.554 74.9201C106.554 76.9286 104.922 78.5918 102.882 78.5918ZM102.882 71.5309C101.031 71.5309 99.5243 73.0372 99.5243 74.8887C99.5243 76.7403 101.031 78.2466 102.882 78.2466C104.734 78.2466 106.24 76.7403 106.24 74.8887C106.24 73.0372 104.734 71.5309 102.882 71.5309Z" fill="#505052"/>
<path d="M59.512 186.076C59.4492 186.076 59.4178 186.044 59.3865 186.013C59.3551 185.95 59.3551 185.856 59.4178 185.793L72.3787 177.32C72.4414 177.257 72.5356 177.289 72.5984 177.383C72.6297 177.446 72.6297 177.54 72.567 177.603L59.6061 186.076C59.5747 186.076 59.5434 186.076 59.512 186.076Z" fill="#505052"/>
<path d="M174.245 132.946H129.086C128.082 132.946 127.14 132.506 126.481 131.753C125.822 131 125.54 129.996 125.666 129.023C126.293 124.598 127.14 116.125 125.728 108.938C124.347 101.877 120.582 95.2244 118.479 91.8979C117.946 91.082 117.82 90.0778 118.071 89.1363C118.322 88.1948 118.981 87.4103 119.86 86.9709L141.294 76.4265L141.357 76.5207C149.39 85.6843 156.2 95.1303 161.598 104.608C161.912 105.173 162.226 105.737 162.571 106.334C165.301 111.292 167.78 116.439 170.009 121.711C171.515 125.289 172.927 128.992 174.182 132.726L174.245 132.946ZM141.231 76.8659L120.017 87.2847C119.232 87.6613 118.636 88.3831 118.385 89.2304C118.134 90.0778 118.291 90.9878 118.761 91.741C120.895 95.0989 124.661 101.783 126.074 108.907C127.486 116.125 126.638 124.63 126.011 129.086C125.885 129.996 126.168 130.906 126.733 131.565C127.329 132.255 128.176 132.632 129.086 132.632H173.806C172.551 128.992 171.201 125.383 169.695 121.837C167.498 116.596 164.987 111.449 162.289 106.491C161.975 105.926 161.661 105.33 161.347 104.765C155.981 95.3813 149.234 85.9667 141.231 76.8659Z" fill="#505052"/>
<path d="M138.47 120.424C138.47 116.345 138.03 112.579 137.34 109.221C137.183 108.405 137.716 107.652 138.532 107.558C143.805 106.93 155.761 105.486 161.316 104.796C161.63 105.361 161.944 105.926 162.257 106.522C165.113 111.731 167.53 116.753 169.632 121.742L139.85 121.805C139.097 121.805 138.501 121.178 138.47 120.424Z" fill="#FF6D54"/>
<path d="M129.086 90.423C129.024 90.423 128.961 90.3916 128.929 90.3288C128.898 90.266 128.929 90.1719 128.992 90.1091L145.625 82.1067C145.688 82.0753 145.782 82.1067 145.844 82.1694C145.876 82.2322 145.844 82.3577 145.782 82.3891L129.149 90.3916C129.149 90.423 129.118 90.423 129.086 90.423Z" fill="#505052"/>
<path d="M132.758 96.1345C132.695 96.1345 132.633 96.1031 132.601 96.0403C132.57 95.9776 132.601 95.8834 132.695 95.852L150.646 88.2889C150.709 88.2575 150.803 88.2889 150.866 88.3831C150.897 88.4458 150.866 88.5714 150.771 88.5714L132.821 96.1345C132.789 96.1345 132.789 96.1345 132.758 96.1345Z" fill="#505052"/>
<path d="M135.457 102.191C135.394 102.191 135.331 102.16 135.3 102.066C135.268 101.972 135.331 101.909 135.394 101.877L155.824 95.601C155.918 95.5696 155.981 95.6324 156.012 95.6951C156.043 95.7579 155.981 95.8521 155.918 95.8834L135.488 102.16C135.488 102.16 135.488 102.191 135.457 102.191Z" fill="#505052"/>
<path d="M153.062 119.263C153.031 119.263 153 119.263 153 119.263C152.215 119.232 151.744 118.636 151.713 117.569C151.682 116.313 152.246 114.524 153.282 112.861C153.188 112.704 153.094 112.547 153 112.359C151.995 110.79 150.771 109.911 149.61 110.005C147.445 110.162 143.773 113.049 142.8 118.698C142.8 118.792 142.706 118.855 142.612 118.824C142.518 118.824 142.455 118.73 142.487 118.636C143.083 115.215 145.719 110.005 149.579 109.692C150.866 109.597 152.184 110.476 153.251 112.171C153.313 112.296 153.408 112.422 153.47 112.516C154.726 110.633 156.546 109.033 158.711 108.844C160.061 108.719 161.379 109.535 162.446 111.135C162.634 111.449 162.822 111.763 163.01 112.077C163.544 111.229 164.109 110.602 164.58 110.382C164.674 110.351 164.737 110.382 164.799 110.476C164.831 110.57 164.799 110.633 164.705 110.664C164.234 110.853 163.701 111.512 163.167 112.39C164.14 114.462 164.454 116.847 163.826 118.008C163.544 118.51 163.136 118.761 162.571 118.761C161.881 118.761 161.441 118.384 161.284 117.663C161.033 116.345 161.818 114.054 162.791 112.359C162.603 111.982 162.414 111.606 162.163 111.261C161.159 109.754 159.935 108.97 158.711 109.095C156.357 109.315 154.663 111.261 153.847 112.422C153.753 112.547 153.69 112.673 153.596 112.767C154.694 114.838 155.071 117.223 154.412 118.384C154.129 119.012 153.659 119.263 153.062 119.263ZM153.439 113.175C152.529 114.681 151.995 116.345 152.027 117.537C152.058 118.165 152.246 118.887 153 118.918C153.533 118.918 153.91 118.73 154.161 118.322C154.757 117.317 154.412 115.121 153.439 113.175ZM162.948 112.798C162.069 114.399 161.347 116.502 161.598 117.694C161.724 118.259 162.038 118.541 162.571 118.541C163.011 118.541 163.324 118.353 163.544 117.945C164.077 116.878 163.795 114.713 162.948 112.798Z" fill="#505052"/>
<path d="M213.065 164.704L210.586 176.724L209.739 180.866C209.142 183.816 206.538 185.95 203.525 185.95H130.373C129.337 185.95 127.674 174.778 129.871 173.554C134.547 170.95 156.232 169.255 156.232 169.255C156.232 169.255 163.575 152.403 165.49 147.695C167.435 142.988 173.178 141.293 177.195 143.239C178.356 143.804 179.392 144.683 180.145 145.875C181.275 147.664 182.813 150.3 184.382 153.03C186.076 156.012 187.802 159.087 189.058 161.347C190.187 163.386 190.941 164.767 190.941 164.767L213.065 164.704Z" fill="#5A558D"/>
<path d="M156.106 169.38C156.012 169.38 155.949 169.318 155.949 169.224C155.949 169.129 156.012 169.067 156.106 169.067C172.488 168.345 199.665 168.69 199.947 168.69C200.041 168.69 200.104 168.753 200.104 168.847C200.104 168.941 200.041 169.004 199.947 169.004C199.665 169.004 172.488 168.659 156.106 169.38Z" fill="#505052"/>
<path d="M219.561 139.662H212.814C212.312 139.662 211.967 139.191 212.092 138.72L212.343 137.81C212.406 137.496 212.187 137.214 211.873 137.214H204.027C203.839 137.214 203.651 137.339 203.588 137.528L203.086 138.94C202.929 139.379 202.489 139.693 202.019 139.693H183.44L185.198 127.391C185.261 127.015 184.978 126.701 184.602 126.701H175.061C174.81 126.701 174.591 126.858 174.497 127.109L173.21 130.467C173.492 131.282 173.775 132.067 174.057 132.852C175.281 136.461 176.317 139.944 177.227 143.27C178.388 143.835 179.424 144.714 180.177 145.907C181.306 147.695 182.844 150.331 184.413 153.062H192.259L189.089 161.378L187.803 164.799H190.972H210.837L208.421 175.28C208.295 176.065 208.923 176.755 209.707 176.755H210.649H218.306C218.965 176.755 219.499 176.285 219.593 175.626L223.986 144.745C224.363 142.047 222.292 139.662 219.561 139.662Z" fill="#FFD561"/>
<path d="M218.306 176.881H209.644C209.236 176.881 208.828 176.692 208.546 176.379C208.264 176.065 208.138 175.626 208.201 175.218L210.586 164.924H187.52L191.976 153.187H184.256L184.225 153.124C183.032 151.022 181.306 148.072 180.02 145.969C179.298 144.84 178.325 143.961 177.132 143.396L177.07 143.365L177.038 143.302C176.097 139.818 175.03 136.304 173.869 132.883C173.586 132.098 173.335 131.282 173.021 130.498L172.99 130.435L174.308 127.014C174.402 126.732 174.716 126.512 175.03 126.512H184.57C184.79 126.512 185.009 126.607 185.135 126.795C185.26 126.983 185.355 127.171 185.323 127.422L183.566 139.567H201.987C202.395 139.567 202.772 139.316 202.897 138.94L203.399 137.559C203.493 137.308 203.745 137.151 203.996 137.151H211.841C212.029 137.151 212.218 137.245 212.343 137.402C212.469 137.559 212.5 137.747 212.437 137.936L212.186 138.846C212.124 139.034 212.186 139.222 212.28 139.348C212.406 139.505 212.563 139.567 212.751 139.567H219.561C220.911 139.567 222.166 140.164 223.045 141.168C223.923 142.172 224.3 143.522 224.143 144.84L219.749 175.72C219.655 176.347 219.028 176.881 218.306 176.881ZM187.991 164.61H210.994L208.515 175.28C208.452 175.594 208.577 175.939 208.797 176.19C209.017 176.441 209.331 176.598 209.676 176.598H218.306C218.871 176.598 219.373 176.19 219.436 175.626L223.829 144.745C224.017 143.522 223.641 142.266 222.825 141.325C222.009 140.383 220.816 139.85 219.593 139.85H212.845C212.563 139.85 212.28 139.724 212.124 139.505C211.967 139.285 211.904 139.002 211.967 138.72L212.218 137.81C212.249 137.716 212.218 137.622 212.155 137.528C212.092 137.433 211.998 137.402 211.904 137.402H204.058C203.933 137.402 203.807 137.496 203.745 137.622L203.242 139.002C203.054 139.505 202.583 139.85 202.019 139.85H183.252L185.041 127.36C185.072 127.234 185.009 127.109 184.947 126.983C184.884 126.858 184.727 126.826 184.601 126.826H175.061C174.873 126.826 174.716 126.952 174.653 127.109L173.398 130.435C173.68 131.22 173.963 132.004 174.214 132.789C175.375 136.178 176.442 139.693 177.352 143.145C178.576 143.741 179.58 144.651 180.302 145.812C181.589 147.884 183.283 150.802 184.476 152.905H192.478L187.991 164.61Z" fill="#505052"/>
<path d="M210.774 164.861H210.743C210.649 164.83 210.617 164.767 210.617 164.673L214.163 149.233C214.195 149.139 214.258 149.108 214.352 149.108C214.446 149.139 214.477 149.202 214.477 149.296L210.931 164.736C210.931 164.799 210.868 164.861 210.774 164.861Z" fill="#505052"/>
<path d="M175.375 168.878C175.343 168.878 175.343 168.878 175.312 168.878C175.218 168.847 175.187 168.753 175.218 168.69L179.58 157.33C179.611 157.236 179.706 157.204 179.8 157.236C179.894 157.267 179.925 157.361 179.894 157.424L175.532 168.784C175.5 168.816 175.438 168.878 175.375 168.878Z" fill="#505052"/>
<path d="M186.296 168.784C186.265 168.784 186.265 168.784 186.233 168.784C186.139 168.753 186.108 168.659 186.139 168.596L187.646 164.673C187.677 164.579 187.771 164.548 187.865 164.579C187.959 164.61 187.991 164.704 187.959 164.767L186.453 168.69C186.39 168.753 186.359 168.784 186.296 168.784Z" fill="#505052"/>
<path d="M192.227 153.187C192.196 153.187 192.196 153.187 192.164 153.187C192.07 153.156 192.039 153.062 192.07 152.999L193.482 149.327C193.514 149.233 193.608 149.202 193.702 149.233C193.796 149.264 193.828 149.359 193.796 149.421L192.384 153.093C192.353 153.156 192.29 153.187 192.227 153.187Z" fill="#505052"/>
<path d="M183.409 139.818H182.813C182.091 139.818 181.401 139.505 180.93 138.94C180.459 138.375 180.271 137.653 180.428 136.931C180.428 136.837 180.522 136.806 180.616 136.806C180.71 136.806 180.773 136.9 180.741 136.994C180.616 137.622 180.773 138.249 181.181 138.72C181.589 139.191 182.185 139.473 182.813 139.473H183.409C183.503 139.473 183.566 139.536 183.566 139.63C183.566 139.724 183.503 139.818 183.409 139.818Z" fill="#505052"/>
<path d="M212.72 139.818H210.868C210.774 139.818 210.711 139.756 210.711 139.661C210.711 139.567 210.774 139.505 210.868 139.505H212.72C212.814 139.505 212.877 139.567 212.877 139.661C212.877 139.756 212.783 139.818 212.72 139.818Z" fill="#505052"/>
<path d="M118.26 155.353H115.31C114.338 155.353 113.584 156.138 113.584 157.079V185.951H120.018V157.079C120.018 156.138 119.233 155.353 118.26 155.353Z" fill="#FF6D54"/>
<path d="M120.142 186.107H113.395V157.079C113.395 156.043 114.242 155.196 115.278 155.196H118.228C119.264 155.196 120.111 156.043 120.111 157.079L120.142 186.107ZM113.74 185.793H119.86V157.079C119.86 156.2 119.138 155.51 118.291 155.51H115.341C114.462 155.51 113.772 156.231 113.772 157.079L113.74 185.793Z" fill="#505052"/>
<path d="M118.669 184.037C118.669 185.104 119.547 185.983 120.614 185.983C124.694 185.983 134.422 185.951 134.893 185.951C135.458 185.951 134.893 182.123 131.378 182.123C130.249 182.123 129.809 174.748 131.159 172.739C131.629 172.018 127.205 170.103 126.765 168.471C126.42 167.216 126.075 163.858 125.322 161.536C124.223 158.147 122.403 157.739 120.395 157.268C119.045 156.954 118.731 157.99 118.731 159.371C118.731 162.415 118.7 167.279 118.7 168.314C118.7 171.202 118.669 176.254 118.669 179.832V184.037Z" fill="white"/>
<path d="M120.582 186.139C120.017 186.139 119.483 185.919 119.107 185.511C118.699 185.103 118.479 184.569 118.479 184.036V179.799C118.479 177.916 118.479 175.594 118.479 173.429C118.479 171.483 118.479 169.631 118.479 168.282C118.479 167.246 118.479 162.382 118.51 159.338C118.51 158.24 118.699 157.581 119.138 157.267C119.452 157.016 119.86 156.953 120.362 157.079C122.37 157.518 124.285 157.957 125.414 161.441C125.885 162.853 126.199 164.673 126.419 166.148C126.576 167.09 126.733 167.905 126.858 168.376C127.078 169.161 128.427 170.102 129.526 170.887C130.718 171.703 131.565 172.299 131.252 172.801C130.09 174.527 130.279 180.207 131.063 181.682C131.157 181.871 131.252 181.965 131.346 181.965C132.915 181.965 133.856 182.718 134.358 183.346C134.955 184.067 135.206 184.977 135.206 185.511C135.206 186.044 134.955 186.107 134.861 186.107C134.421 186.076 124.724 186.107 120.582 186.139ZM119.923 157.33C119.703 157.33 119.515 157.392 119.358 157.518C119.013 157.8 118.856 158.365 118.856 159.37C118.856 162.414 118.824 167.278 118.824 168.313C118.824 169.663 118.824 171.514 118.824 173.46C118.824 175.625 118.824 177.948 118.824 179.831V184.036C118.824 184.507 119.013 184.977 119.358 185.291C119.703 185.636 120.142 185.825 120.613 185.825C124.755 185.825 134.421 185.793 134.892 185.793C134.955 185.731 134.986 185.166 134.704 184.475C134.421 183.816 133.574 182.279 131.377 182.279C131.157 182.279 130.969 182.122 130.812 181.839C129.996 180.301 129.808 174.496 131.032 172.644C131.189 172.425 130.09 171.671 129.4 171.169C128.207 170.353 126.889 169.412 126.607 168.502C126.45 168 126.325 167.184 126.168 166.211C125.917 164.767 125.603 162.947 125.163 161.566C124.096 158.24 122.276 157.832 120.331 157.424C120.174 157.361 120.048 157.33 119.923 157.33Z" fill="#505052"/>
<path d="M124.913 182.813C126.386 182.813 127.581 181.619 127.581 180.145C127.581 178.672 126.386 177.478 124.913 177.478C123.44 177.478 122.246 178.672 122.246 180.145C122.246 181.619 123.44 182.813 124.913 182.813Z" fill="#FF6D54"/>
<path d="M124.912 182.969C123.343 182.969 122.088 181.714 122.088 180.145C122.088 178.575 123.343 177.32 124.912 177.32C126.481 177.32 127.737 178.575 127.737 180.145C127.737 181.714 126.481 182.969 124.912 182.969ZM124.912 177.634C123.531 177.634 122.402 178.764 122.402 180.145C122.402 181.525 123.531 182.655 124.912 182.655C126.293 182.655 127.423 181.525 127.423 180.145C127.423 178.764 126.293 177.634 124.912 177.634Z" fill="#505052"/>
<path d="M126.608 167.938C125.792 168.032 125.353 169.883 126.2 171.17C127.33 172.896 129.997 174.089 131.19 174.246C131.943 174.34 132.79 171.578 131.692 171.296C130.342 170.919 128.052 169.538 127.581 169.005C127.204 168.534 126.733 167.906 126.608 167.938Z" fill="#FF6D54"/>
<path d="M131.189 174.37C131.157 174.37 131.157 174.37 131.126 174.37C129.933 174.213 127.235 173.052 126.042 171.232C125.414 170.291 125.477 169.161 125.791 168.47C125.979 168.062 126.262 167.811 126.575 167.78C126.764 167.749 126.921 167.937 127.391 168.533C127.486 168.659 127.58 168.784 127.674 168.878C128.082 169.349 130.341 170.761 131.691 171.107C132.224 171.263 132.444 171.891 132.256 172.77C132.13 173.586 131.691 174.37 131.189 174.37ZM126.575 168.094C126.387 168.125 126.199 168.313 126.073 168.596C125.791 169.224 125.791 170.259 126.324 171.044C127.454 172.738 130.09 173.9 131.189 174.025C131.44 174.056 131.816 173.46 131.973 172.676C132.099 172.111 132.036 171.483 131.628 171.358C130.279 170.981 127.925 169.569 127.454 169.035C127.36 168.91 127.266 168.784 127.14 168.69C126.983 168.47 126.701 168.157 126.575 168.094Z" fill="#505052"/>
<path d="M175.124 126.638H184.727L186.672 116.564C186.924 115.215 186.108 113.897 184.758 113.583C184.758 113.583 174.59 111.198 171.232 110.288C170.322 110.037 169.789 110.288 169.601 110.884C169.35 111.794 169.883 112.641 170.856 113.175C171.954 113.771 173.617 114.462 173.617 114.462C173.617 114.462 173.053 114.807 173.053 115.686C173.053 116.156 173.335 116.784 173.335 116.784C173.335 116.784 172.896 117.506 173.021 118.227C173.21 119.169 173.806 119.64 173.806 119.64C173.806 119.64 173.335 120.644 173.869 121.805C174.402 122.966 175.751 123.782 175.751 123.782L175.124 126.638Z" fill="#FF6D54"/>
<path d="M177.98 124.786C177.948 124.786 177.948 124.786 177.98 124.786C176.944 124.567 175.751 123.939 175.689 123.908C175.626 123.876 175.595 123.782 175.626 123.688C175.657 123.594 175.751 123.594 175.846 123.625C175.846 123.625 177.038 124.284 178.011 124.473C178.105 124.504 178.137 124.567 178.137 124.661C178.105 124.755 178.042 124.786 177.98 124.786Z" fill="#505052"/>
<path d="M171.954 111.669C171.797 111.669 171.64 111.637 171.452 111.574C170.918 111.418 170.573 110.79 170.699 110.256L171.013 110.319C170.918 110.727 171.17 111.135 171.577 111.292C172.519 111.606 172.958 110.821 172.99 110.79L173.272 110.947C173.209 110.915 172.801 111.669 171.954 111.669Z" fill="#505052"/>
<path d="M183.252 119.169C183.22 119.169 180.647 118.918 177.948 117.537C176.097 116.596 176.097 115.152 176.254 114.399C176.316 114.148 176.473 113.928 176.693 113.771C176.913 113.614 177.195 113.583 177.446 113.646C179.109 113.991 183.032 114.838 183.597 114.964C183.691 114.995 183.723 115.058 183.723 115.152C183.691 115.246 183.628 115.278 183.534 115.278C182.938 115.121 178.67 114.211 177.383 113.96C177.195 113.928 177.007 113.96 176.85 114.054C176.693 114.148 176.599 114.305 176.536 114.493C176.348 115.309 176.473 116.47 178.042 117.286C180.678 118.635 183.189 118.887 183.22 118.887C183.315 118.887 183.377 118.981 183.377 119.043C183.409 119.106 183.346 119.169 183.252 119.169Z" fill="#505052"/>
<path d="M178.545 115.654C178.388 115.654 178.2 115.623 178.043 115.56C177.697 115.434 177.446 115.183 177.321 114.87C177.164 114.493 177.164 114.085 177.352 113.708L177.635 113.834C177.509 114.116 177.509 114.462 177.635 114.744C177.729 114.995 177.948 115.183 178.2 115.277C178.513 115.403 178.796 115.372 179.078 115.246C179.361 115.089 179.58 114.775 179.674 114.399L179.988 114.462C179.863 114.932 179.612 115.34 179.235 115.529C178.953 115.591 178.764 115.654 178.545 115.654Z" fill="#505052"/>
<path d="M178.545 119.42C178.45 119.42 178.356 119.42 178.293 119.389C176.348 119.012 174.214 118.416 173.21 116.847C173.147 116.784 173.178 116.69 173.272 116.627C173.335 116.596 173.429 116.596 173.492 116.658C174.433 118.133 176.473 118.698 178.356 119.075C178.67 119.138 178.921 119.075 179.109 118.887C179.298 118.698 179.36 118.384 179.266 118.071C179.235 117.976 179.298 117.914 179.392 117.882C179.486 117.851 179.549 117.914 179.58 118.008C179.674 118.416 179.58 118.824 179.329 119.106C179.109 119.294 178.858 119.42 178.545 119.42Z" fill="#505052"/>
<path d="M176.975 116.753C176.944 116.753 176.944 116.753 176.913 116.753L175.626 116.219C175.532 116.188 175.5 116.093 175.532 116.031C175.563 115.968 175.657 115.905 175.751 115.937L177.038 116.47C177.132 116.501 177.164 116.596 177.132 116.658C177.101 116.721 177.038 116.753 176.975 116.753Z" fill="#505052"/>
<path d="M176.411 115.623C176.379 115.623 176.379 115.623 176.348 115.623L173.555 114.587C173.461 114.556 173.429 114.462 173.461 114.399C173.492 114.305 173.586 114.273 173.649 114.305L176.442 115.34C176.536 115.372 176.568 115.466 176.536 115.529C176.505 115.591 176.473 115.623 176.411 115.623Z" fill="#505052"/>
<path d="M177.289 120.644C177.227 120.644 177.132 120.644 177.07 120.644H176.913C176.097 120.55 174.842 120.456 173.743 119.765C173.68 119.734 173.649 119.608 173.68 119.546C173.712 119.483 173.837 119.451 173.9 119.483C174.936 120.11 176.128 120.236 176.944 120.299H177.101C177.697 120.361 178.043 120.142 178.168 119.922C178.262 119.734 178.231 119.483 178.043 119.326C177.98 119.263 177.98 119.169 178.043 119.106C178.105 119.043 178.199 119.043 178.262 119.106C178.513 119.357 178.607 119.734 178.45 120.048C178.231 120.456 177.823 120.644 177.289 120.644Z" fill="#505052"/>
<path d="M215.042 185.95H210.649C208.828 185.95 207.479 184.224 207.918 182.435L209.393 176.724H218.306L218.055 179.297H220.565C223.766 179.297 225.806 182.781 224.174 185.574C223.39 186.954 222.542 188.147 221.883 188.649C220.848 189.434 219.561 188.743 219.561 188.743C219.561 188.743 218.965 189.371 218.337 189.34C217.458 189.277 217.145 188.335 217.145 188.335C217.145 188.335 216.391 188.837 215.45 188.649C214.163 188.367 215.042 185.95 215.042 185.95Z" fill="#FF6D54"/>
<path d="M218.055 179.486H216.078C215.984 179.486 215.921 179.423 215.921 179.329C215.921 179.234 215.984 179.172 216.078 179.172H218.055C218.149 179.172 218.212 179.234 218.212 179.329C218.212 179.423 218.149 179.486 218.055 179.486Z" fill="#505052"/>
<path d="M219.592 188.932C219.561 188.932 219.53 188.932 219.498 188.9C219.435 188.837 219.435 188.743 219.498 188.681C220.471 187.582 221.664 185.636 221.883 184.444C222.009 183.722 221.915 183.094 221.538 182.655C221.224 182.279 220.722 182.059 220.157 182.059C220.063 182.059 220 181.996 220 181.902C220 181.808 220.063 181.745 220.157 181.745C220.816 181.745 221.413 181.996 221.789 182.467C222.197 182.969 222.354 183.691 222.197 184.507C221.946 185.762 220.722 187.739 219.749 188.869C219.687 188.9 219.624 188.932 219.592 188.932Z" fill="#505052"/>
<path d="M217.051 188.586C217.019 188.586 216.956 188.586 216.925 188.524C216.862 188.461 216.862 188.367 216.925 188.304C218.4 186.954 218.871 185.134 218.996 184.444C219.122 183.722 219.028 183.094 218.651 182.655C218.337 182.279 217.835 182.059 217.27 182.059C217.176 182.059 217.113 181.996 217.113 181.902C217.113 181.808 217.176 181.745 217.27 181.745C217.929 181.745 218.526 181.996 218.902 182.467C219.31 182.969 219.467 183.691 219.31 184.507C219.153 185.26 218.651 187.143 217.145 188.555C217.145 188.555 217.113 188.586 217.051 188.586Z" fill="#505052"/>
<path d="M215.042 186.107C214.948 186.107 214.885 186.044 214.885 185.95C214.885 185.856 214.948 185.793 215.042 185.793C215.732 185.793 216.329 185.574 216.548 185.228C216.674 185.009 216.674 184.758 216.548 184.444C216.078 183.502 213.755 183.126 212.343 182.875C212.155 182.843 211.966 182.812 211.81 182.781C211.715 182.781 211.653 182.686 211.684 182.592C211.684 182.498 211.778 182.435 211.872 182.467C212.029 182.498 212.218 182.53 212.406 182.561C213.975 182.812 216.329 183.189 216.831 184.287C217.082 184.789 216.956 185.166 216.831 185.385C216.517 185.825 215.858 186.107 215.042 186.107Z" fill="#505052"/>
<path d="M218.934 128.02C218.934 129.212 217.93 130.185 216.737 130.185C216.581 130.185 216.455 130.185 216.361 130.154C215.702 130.028 215.514 129.683 214.792 129.683L213.536 132.915L211.873 137.183H204.028L204.749 135.175C203.055 135.175 201.894 133.48 202.521 131.911L206.287 122.434L217.396 122.999L216.267 125.917C216.424 125.886 216.581 125.854 216.737 125.854C217.961 125.854 218.934 126.419 218.934 128.02Z" fill="#FF6D54"/>
<path d="M211.966 137.339H203.807L204.529 135.331C203.776 135.268 203.085 134.86 202.646 134.232C202.175 133.542 202.081 132.632 202.395 131.847L206.224 122.244L217.647 122.841L216.548 125.696C216.611 125.696 216.705 125.696 216.799 125.696C218.306 125.696 219.153 126.512 219.153 128.05C219.153 129.337 218.086 130.372 216.799 130.372C216.642 130.372 216.517 130.372 216.391 130.341C216.078 130.278 215.858 130.184 215.67 130.09C215.45 129.964 215.262 129.902 214.948 129.87L211.966 137.339ZM204.246 137.025H211.747L214.665 129.525H214.76C215.199 129.525 215.481 129.651 215.732 129.776C215.921 129.87 216.109 129.964 216.36 129.996C216.486 130.027 216.611 130.027 216.737 130.027C217.866 130.027 218.776 129.117 218.776 128.019C218.776 126.669 218.086 125.979 216.737 125.979C216.58 125.979 216.423 125.979 216.297 126.042L216.015 126.104L217.176 123.123L206.412 122.558L202.677 131.941C202.395 132.632 202.489 133.385 202.897 134.013C203.305 134.64 203.995 134.986 204.749 134.986H204.968L204.246 137.025Z" fill="#505052"/>
<path d="M207.134 135.362H204.717C204.623 135.362 204.56 135.299 204.56 135.205C204.56 135.111 204.623 135.048 204.717 135.048H207.134C209.268 135.048 211.308 133.919 212.437 132.098C212.469 132.036 212.594 132.004 212.657 132.036C212.72 132.067 212.751 132.193 212.72 132.255C211.496 134.138 209.362 135.362 207.134 135.362Z" fill="#505052"/>
<path d="M207.699 128.615H204.717C204.623 128.615 204.56 128.552 204.529 128.489C204.498 128.333 204.466 128.176 208.232 126.01C208.295 125.979 208.389 125.979 208.452 126.073C208.514 126.167 208.483 126.23 208.389 126.293C207.071 127.046 205.659 127.925 205.094 128.333H207.699C207.793 128.333 207.855 128.395 207.855 128.489C207.855 128.584 207.793 128.615 207.699 128.615Z" fill="#505052"/>
<path d="M217.05 129.18C216.988 129.18 216.925 129.148 216.893 129.086C216.737 128.646 216.203 128.489 215.889 128.395C215.701 128.333 215.638 128.301 215.575 128.238C215.544 128.207 215.544 128.144 215.575 128.113C215.607 128.019 215.701 127.987 215.889 127.925C216.172 127.862 216.705 127.705 216.925 127.171C216.956 127.109 217.05 127.046 217.145 127.077C217.207 127.109 217.27 127.203 217.239 127.266C217.019 127.83 216.548 128.05 216.203 128.144C216.58 128.27 217.05 128.489 217.207 128.992C217.239 129.086 217.207 129.148 217.113 129.18C217.082 129.18 217.082 129.18 217.05 129.18Z" fill="#505052"/>
<path d="M216.267 125.917C215.169 126.356 214.415 128.365 214.321 128.584C214.164 129.024 212.564 128.898 212.815 128.333C213.129 127.643 214.447 124.599 213.568 123.501C212.689 122.402 213.631 122.151 213.631 122.151C213.631 122.151 218.432 122.245 218.432 122.653C218.37 124.191 217.742 125.98 217.711 125.98C217.428 125.886 216.581 125.76 216.267 125.917Z" fill="white"/>
<path d="M213.63 128.992C213.253 128.992 212.877 128.897 212.688 128.678C212.594 128.552 212.594 128.395 212.657 128.27C213.693 125.916 213.975 124.253 213.441 123.594C213.096 123.154 212.971 122.778 213.065 122.464C213.19 122.119 213.567 121.993 213.598 121.993H213.63H213.661C214.697 122.025 218.149 122.087 218.525 122.495C218.588 122.558 218.588 122.621 218.588 122.652C218.525 124.033 217.961 126.01 217.804 126.104L217.741 126.136L217.678 126.104C217.396 125.979 216.611 125.916 216.329 126.01C215.419 126.387 214.76 127.925 214.508 128.584C214.446 128.772 214.226 128.897 213.912 128.96C213.787 128.992 213.724 128.992 213.63 128.992ZM213.661 122.307C213.598 122.339 213.441 122.401 213.379 122.558C213.316 122.747 213.41 123.029 213.693 123.406C214.446 124.378 213.724 126.669 212.939 128.395C212.908 128.427 212.939 128.458 212.939 128.489C213.033 128.646 213.473 128.709 213.818 128.678C214.038 128.646 214.132 128.584 214.163 128.521C214.508 127.642 215.199 126.136 216.172 125.759C216.486 125.634 217.207 125.696 217.615 125.791C217.772 125.383 218.212 123.939 218.243 122.684C217.929 122.495 215.701 122.339 213.661 122.307Z" fill="#505052"/>
<path d="M204.248 129.275L208.704 129.432C208.767 129.432 208.798 129.495 208.767 129.557C208.422 129.965 207.198 131.158 205.44 130.969C204.216 130.844 204.059 129.871 204.028 129.463C204.028 129.369 204.122 129.275 204.248 129.275Z" fill="white"/>
<path d="M205.816 131.157C205.69 131.157 205.565 131.157 205.408 131.126C204.058 130.969 203.87 129.902 203.87 129.462C203.87 129.368 203.901 129.274 203.964 129.211C204.027 129.149 204.121 129.117 204.215 129.117L208.672 129.274C208.766 129.274 208.829 129.337 208.891 129.431C208.923 129.525 208.923 129.619 208.86 129.682C208.577 130.059 207.448 131.157 205.816 131.157ZM204.247 129.431C204.215 129.431 204.215 129.431 204.247 129.431C204.215 129.933 204.404 130.718 205.471 130.812C207.008 130.969 208.107 130.027 208.546 129.588L204.247 129.431Z" fill="#505052"/>
<path d="M211.452 126.606C211.597 126.161 211.461 125.718 211.148 125.616C210.835 125.514 210.463 125.792 210.318 126.237C210.173 126.682 210.31 127.125 210.623 127.227C210.936 127.329 211.307 127.051 211.452 126.606Z" fill="#505052"/>
<path d="M206.484 126.353C206.629 125.908 206.493 125.464 206.18 125.362C205.867 125.26 205.495 125.538 205.35 125.983C205.205 126.428 205.342 126.871 205.655 126.973C205.968 127.075 206.339 126.798 206.484 126.353Z" fill="#505052"/>
<path d="M205.66 123.94H218.37C218.432 123.94 218.495 123.909 218.495 123.846L218.683 123.187C219.311 121.147 217.773 119.107 215.671 119.107L209.583 119.076C208.296 119.076 207.323 119.641 206.821 120.802L205.66 123.532C205.628 123.657 205.534 123.94 205.66 123.94Z" fill="#5A558D"/>
<path d="M218.369 124.096H205.659C205.596 124.096 205.533 124.065 205.502 124.002C205.408 123.845 205.502 123.562 205.565 123.5L206.726 120.769C207.228 119.577 208.264 118.918 209.644 118.918L215.733 118.949C216.8 118.949 217.772 119.451 218.4 120.299C219.028 121.146 219.216 122.213 218.902 123.217L218.714 123.876C218.62 124.033 218.494 124.096 218.369 124.096ZM205.753 123.782H218.337L218.526 123.155C218.808 122.244 218.62 121.272 218.055 120.487C217.49 119.702 216.611 119.263 215.638 119.263L209.55 119.232C208.295 119.232 207.385 119.797 206.914 120.864L205.753 123.594C205.816 123.688 205.784 123.751 205.753 123.782Z" fill="#505052"/>
<path d="M205.66 123.94L202.616 119.766C202.177 119.139 202.396 118.26 203.087 117.946C204.97 117.099 207.198 117.664 208.453 119.295L211.968 123.909C211.936 123.94 205.629 123.94 205.66 123.94Z" fill="white"/>
<path d="M212.249 124.096H205.565L202.489 119.859C202.238 119.514 202.175 119.106 202.27 118.698C202.364 118.29 202.646 117.976 203.023 117.788C204.968 116.909 207.259 117.474 208.577 119.2L212.249 124.096ZM205.722 123.782H211.621L208.326 119.42C207.102 117.82 205 117.286 203.148 118.102C202.866 118.227 202.646 118.479 202.583 118.792C202.489 119.106 202.552 119.42 202.74 119.671L205.722 123.782Z" fill="#505052"/>
<path d="M216.361 130.185C215.953 131.095 214.698 133.198 213.631 132.978C213.599 132.978 213.568 132.947 213.537 132.947L214.792 129.714C215.514 129.683 215.702 130.059 216.361 130.185Z" fill="white"/>
<path d="M213.787 133.134C213.724 133.134 213.661 133.134 213.567 133.103C213.535 133.103 213.473 133.071 213.441 133.071L213.316 133.008L214.665 129.556H214.759C215.199 129.556 215.481 129.682 215.732 129.808C215.921 129.902 216.109 129.996 216.36 130.027L216.548 130.059L216.454 130.247C216.14 131.031 214.948 133.134 213.787 133.134ZM213.724 132.82C214.602 132.914 215.669 131.251 216.109 130.31C215.889 130.247 215.732 130.184 215.575 130.09C215.356 129.964 215.167 129.87 214.854 129.87L213.724 132.82Z" fill="#505052"/>
<path d="M94.0017 87.3482L92.0246 99.5245C92.0246 99.5245 79.4718 104.859 70.9672 105.016C68.8646 105.048 65.8519 102.851 63.2158 100.497C61.427 98.8968 59.7951 97.2022 58.7909 96.1038C58.226 95.5075 57.8808 95.0996 57.7553 94.9427C55.6841 92.4948 54.4602 82.9233 56.7824 82.9233C59.0733 82.9233 61.6781 84.461 64.1573 86.4381C64.3769 86.6264 64.5966 86.8147 64.8163 87.003C66.354 88.2896 67.7976 89.7646 69.0843 91.0513C69.4608 91.4592 69.8688 91.8672 70.214 92.2438C71.8459 93.9698 72.9757 95.2565 73.2267 95.2565C74.3251 95.2565 87.5998 92.2752 88.2588 92.1496C88.7295 92.0555 88.7923 90.0157 91.6167 88.0072C92.6837 87.254 92.1815 85.2142 92.6523 84.869C93.5624 84.1472 94.2214 86.2184 94.0017 87.3482Z" fill="white"/>
<path d="M70.9037 105.173C69.1149 105.173 66.4788 103.635 63.0896 100.622C61.2694 98.9902 59.6689 97.327 58.6647 96.2286C58.037 95.5382 57.6605 95.0988 57.6291 95.0674C55.8403 92.9648 54.7105 85.8411 55.7775 83.5502C56.0913 82.8912 56.4993 82.7656 56.7818 82.7656C58.7902 82.7656 61.3322 83.9581 64.2507 86.3432L64.3135 86.406C64.5331 86.5942 64.7214 86.7512 64.9411 86.9081C66.2278 88.0064 67.6086 89.2931 69.2091 90.9878C69.5857 91.3957 69.9937 91.8037 70.3389 92.1803C70.6527 92.4941 70.9351 92.8079 71.1862 93.0904C72.159 94.126 73.0691 95.0988 73.2574 95.1616C73.885 95.1616 79.4397 94.0004 88.0698 92.0861L88.2581 92.0547C88.3208 92.0547 88.4778 91.7409 88.5719 91.5213C88.9171 90.7681 89.6075 89.3245 91.5532 87.9437C92.1181 87.5357 92.2122 86.657 92.2436 85.9666C92.275 85.4331 92.3064 84.9938 92.5574 84.8055C92.8399 84.6172 93.1223 84.5858 93.3734 84.7427C94.001 85.1193 94.3462 86.5629 94.1893 87.473L92.1809 99.7434L92.1181 99.7748C91.9926 99.8375 79.4397 105.11 70.9979 105.267C70.9351 105.173 70.9037 105.173 70.9037 105.173ZM56.7818 83.0481C56.4679 83.0481 56.2483 83.2364 56.06 83.6443C55.0557 85.8097 56.1855 92.8079 57.8801 94.8164C57.9115 94.8478 58.2881 95.2871 58.9157 95.9775C59.92 97.0759 61.5205 98.7392 63.3092 100.371C66.6358 103.352 69.2719 104.89 70.9665 104.859C79.0003 104.702 90.8 99.8689 91.8984 99.4296L93.8755 87.3474C94.0324 86.4687 93.6872 85.2134 93.2165 84.931C93.1223 84.8682 92.9654 84.8055 92.7457 84.9938C92.6202 85.0879 92.5888 85.4959 92.5574 85.9038C92.4947 86.657 92.4005 87.6299 91.7101 88.132C89.8272 89.4814 89.1995 90.7995 88.8543 91.584C88.666 91.992 88.5405 92.243 88.3208 92.3058L88.1326 92.3372C83.9901 93.2787 74.1989 95.4126 73.2574 95.4126C72.975 95.4126 72.4415 94.8478 70.9665 93.2473C70.7154 92.9648 70.4016 92.651 70.1192 92.3372C69.774 91.9606 69.3974 91.5526 68.9894 91.1447C67.3889 89.4814 66.0395 88.1947 64.7528 87.0964C64.5332 86.9081 64.3135 86.7512 64.0938 86.5629L64.031 86.5001C61.1439 84.2092 58.6961 83.0481 56.7818 83.0481Z" fill="#505052"/>
<path d="M70.1817 92.2116C69.962 93.7807 69.2402 95.4754 68.079 96.9503C66.9179 98.4253 64.7839 99.9317 63.1834 100.497C61.3947 98.896 59.7628 97.2014 58.7585 96.103C60.5159 95.1302 62.3047 93.8749 63.3403 92.3058C64.2504 90.8936 64.9094 88.6027 64.7839 87.0022C66.3216 88.2889 67.7652 89.7638 69.0519 91.0505C69.4599 91.4585 69.8365 91.8351 70.1817 92.2116Z" fill="#5A558D"/>
<path d="M63.1524 100.653L63.0896 100.591C61.2694 98.9588 59.6689 97.2956 58.6647 96.1972L58.5392 96.0403L58.7275 95.9461C60.8615 94.785 62.3992 93.4983 63.2465 92.1803C64.1566 90.7681 64.7842 88.5086 64.6587 86.9708L64.6273 86.5942L64.9098 86.8453C66.2278 87.9437 67.5773 89.2303 69.1777 90.925C69.5543 91.3329 69.9623 91.7409 70.3075 92.1175L70.3703 92.1803V92.243C70.1506 93.9063 69.366 95.6009 68.2363 97.0445C67.0751 98.4881 64.9412 100.026 63.2779 100.622L63.1524 100.653ZM59.0099 96.1344C60.0141 97.2328 61.5205 98.8019 63.2151 100.308C64.8156 99.712 66.8555 98.237 67.9538 96.8562C69.0522 95.4754 69.774 93.8435 70.0251 92.2744C69.6799 91.9292 69.3347 91.5526 68.9581 91.1447C67.4831 89.6069 66.1964 88.383 64.9725 87.3474C64.9725 88.9165 64.3449 91.0505 63.4662 92.3999C62.6189 93.6866 61.1125 94.9733 59.0099 96.1344Z" fill="#505052"/>
<path d="M46.6453 84.9624C51.2271 84.2092 58.8216 69.7734 58.853 68.3298C58.9157 66.6666 56.6876 65.7879 55.4637 65.0033C53.6435 63.8108 52.5765 63.2459 50.7877 63.4028C49.0617 63.5284 48.842 64.815 47.524 65.1289C45.5469 65.5996 39.5215 63.8736 36.3206 65.3485C33.1196 66.8235 31.7074 72.6292 28.6947 73.6021C25.3368 74.669 21.006 73.4138 17.5226 75.3594C13.0036 77.9328 13.4429 83.205 14.3844 83.4561C14.9179 83.5816 14.8551 82.2635 17.8051 82.7029C19.9391 83.0167 22.7634 86.1863 25.9017 86.7826C31.7701 87.8496 40.9023 85.9039 46.6453 84.9624Z" fill="#FF6D54"/>
<path d="M15.1064 83.1108C15.0751 83.1108 15.0123 83.0794 14.9809 83.0794C14.9181 83.0166 14.9181 82.9225 14.9809 82.8597C16.2676 81.6358 18.3702 80.9454 20.3473 81.1023C21.7281 81.2278 22.7951 81.6986 23.3913 82.5145C23.4541 82.5773 23.4227 82.6714 23.36 82.7342C23.2972 82.7969 23.203 82.7656 23.1403 82.7028C22.6068 81.981 21.6026 81.5103 20.3159 81.4161C18.433 81.2592 16.4245 81.9182 15.2006 83.0794C15.1692 83.0794 15.1378 83.1108 15.1064 83.1108Z" fill="#505052"/>
<path d="M39.0195 69.9303C38.9253 69.9303 38.8625 69.8675 38.8625 69.7734C38.8625 69.6792 38.9253 69.6165 39.0195 69.6165C44.1661 69.3654 45.9549 67.2628 47.2416 65.7251C47.6182 65.2857 47.9948 64.8464 48.3714 64.5326C48.4341 64.4698 48.5283 64.5012 48.591 64.5639C48.6538 64.6267 48.6224 64.7209 48.5596 64.7836C48.1831 65.0974 47.8692 65.474 47.4613 65.9448C46.1432 67.4825 44.323 69.6792 39.0195 69.9303Z" fill="#505052"/>
<path d="M38.5488 71.6563C37.4819 71.6563 36.3521 71.5621 35.191 71.3425C35.0968 71.3111 35.0654 71.2483 35.0654 71.1542C35.0968 71.06 35.1596 71.0286 35.2537 71.0286C38.9568 71.7504 41.9695 71.1228 43.0993 70.5265C43.162 70.4952 43.2876 70.5265 43.3189 70.5893C43.3503 70.6521 43.3189 70.7776 43.2562 70.809C42.3147 71.2797 40.5887 71.6563 38.5488 71.6563Z" fill="#505052"/>
<path d="M52.6393 107.275H69.4602C77.0233 107.275 79.1259 111.198 76.7095 117.537C73.6654 125.571 64.8784 147.413 62.9955 152.089C62.7758 152.622 62.2423 152.968 61.6774 152.968H49.1873C48.8421 152.968 48.4969 152.811 48.2772 152.56C47.2102 151.304 44.0092 147.193 46.457 141.011C49.3128 133.856 57.127 128.113 58.6961 123.845C58.7589 123.688 58.8216 123.437 58.8216 123.437H46.4257L25.5879 175.782C25.4624 176.096 25.1799 176.284 24.8661 176.284H12.8781C11.309 176.284 7.82558 171.922 10.7755 164.736C14.0706 156.702 19.9077 152.277 22.1986 148.951C22.7635 148.135 22.3555 144.996 23.6422 141.89C25.1485 138.249 33.3079 119.953 33.3079 119.953C33.3079 119.953 31.8957 116.345 33.4021 112.265C34.5946 108.97 37.2307 103.384 37.2307 103.384L54.3654 103.352L52.6393 107.275Z" fill="#FF6D54"/>
<path d="M62.5248 123.625H58.8844C58.7903 123.625 58.7275 123.562 58.7275 123.468C58.7275 123.374 58.7903 123.311 58.8844 123.311H62.5248C62.6189 123.311 62.6817 123.374 62.6817 123.468C62.6817 123.562 62.6189 123.625 62.5248 123.625Z" fill="#505052"/>
<path d="M52.6391 107.432H45.2957C45.2016 107.432 45.1388 107.369 45.1388 107.275C45.1388 107.181 45.2016 107.118 45.2957 107.118H52.6391C52.7333 107.118 52.796 107.181 52.796 107.275C52.796 107.369 52.7333 107.432 52.6391 107.432Z" fill="#505052"/>
<path d="M46.5196 123.625C39.49 123.625 35.4104 123.468 33.245 120.11C33.2136 120.048 33.2136 119.953 33.2764 119.891C33.3391 119.828 33.4333 119.859 33.496 119.922C35.5673 123.154 39.3959 123.311 46.5196 123.311C46.6138 123.311 46.6766 123.374 46.6766 123.468C46.6766 123.562 46.5824 123.625 46.5196 123.625Z" fill="#505052"/>
<path d="M19.3113 158.177C19.2799 158.177 19.2485 158.177 19.2172 158.146C19.1544 158.083 19.1544 157.989 19.1858 157.926C20.849 155.855 22.0416 152.089 22.4181 147.852C22.4181 147.758 22.5123 147.695 22.5751 147.695C22.6692 147.695 22.732 147.789 22.732 147.852C22.3554 152.152 21.1315 155.98 19.4368 158.114C19.4055 158.146 19.3427 158.177 19.3113 158.177Z" fill="#505052"/>
<path d="M60.674 88.8546L59.2931 92.0242L56.4374 98.6772L54.3975 103.416L37.2629 103.447L36.8235 98.6772L36.1959 92.0242L35.9448 89.2939C35.9448 88.5094 32.1789 86.0616 32.9949 85.5595C34.4385 84.6494 39.4282 82.892 41.7505 82.892H56.7512C59.8266 82.892 61.8979 86.0302 60.674 88.8546Z" fill="#5A558D"/>
<path d="M37.1678 103.603L35.787 89.3244C35.787 89.042 35.0025 88.3202 34.3748 87.7553C33.3078 86.7825 32.6802 86.1862 32.743 85.7469C32.743 85.6214 32.8057 85.5272 32.9312 85.4331C34.3748 84.5544 39.3646 82.7342 41.781 82.7342H56.7817C58.288 82.7342 59.6689 83.4874 60.4848 84.7113C61.3007 85.9666 61.4263 87.5043 60.8614 88.8851L54.5536 103.541L37.1678 103.603ZM41.781 83.048C39.4587 83.048 34.469 84.8368 33.1195 85.6841C33.0882 85.7155 33.0882 85.7155 33.0882 85.7469C33.0568 86.0607 33.9669 86.908 34.6259 87.5043C35.5673 88.3516 36.1322 88.9165 36.1322 89.2931L37.4817 103.258L54.3653 103.227L60.5789 88.7596C61.1438 87.4729 60.9869 86.0293 60.2337 84.8682C59.4806 83.707 58.1939 83.0166 56.8131 83.0166L41.781 83.048Z" fill="#505052"/>
<path d="M59.3249 92.0241L56.4692 98.6771H36.8553L36.2277 92.0241H59.3249Z" fill="white"/>
<path d="M56.562 98.8332H36.6971L36.0381 91.8664H59.5433L56.562 98.8332ZM36.9796 98.5194H56.3424L59.0726 92.1802H36.3833L36.9796 98.5194Z" fill="#505052"/>
<path d="M42.0638 110.352C41.8442 111.105 41.3421 110.76 41.3421 110.76C41.3421 110.76 41.5304 111.921 41.2165 112.266C40.9341 112.548 40.6516 112.517 40.6516 112.517C40.6516 112.517 40.5575 113.05 40.2751 113.207C39.8357 113.458 39.3336 113.145 39.3022 113.176C39.2081 113.396 38.957 113.553 38.6432 113.553C37.8586 113.553 37.4193 112.925 36.4464 111.858C35.7874 111.136 34.3438 111.889 32.6492 111.262C30.578 110.508 19.5628 103.73 16.8326 99.0226C15.2321 96.2609 16.0794 92.9972 19.1862 91.4281C20.4729 90.7691 23.0462 89.7021 25.6824 88.5409C27.4084 87.7878 29.1344 87.066 30.578 86.4697C32.5551 85.6224 33.9986 84.9947 34.1869 84.932C35.9129 84.2416 37.7645 84.6809 39.0825 86.5952C40.683 88.8861 39.4905 92.9658 38.7373 93.3738C38.3608 93.5935 36.9799 94.2839 35.4108 95.0998C33.8731 95.9157 32.1157 96.8258 30.8604 97.4535C29.9189 97.9242 29.2913 98.2694 29.2913 98.2694L34.3438 102.945C34.3438 102.945 35.1598 102.569 36.3837 102.851C37.3251 103.071 38.298 101.847 38.549 102.224C39.4591 103.479 37.6076 104.922 37.6076 104.922C37.6076 104.922 39.2708 105.55 40.4006 106.68C41.7186 107.904 42.2835 109.598 42.0638 110.352Z" fill="white"/>
<path d="M38.7056 113.708C37.9524 113.708 37.5445 113.238 36.8227 112.453C36.6971 112.296 36.5402 112.139 36.4147 111.982C36.1323 111.669 35.6302 111.669 34.9711 111.7C34.3121 111.731 33.5275 111.731 32.6488 111.418C30.3893 110.602 19.4056 103.729 16.7695 99.1157C15.9535 97.7035 15.7652 96.1658 16.1732 94.7222C16.6126 93.2787 17.6795 92.0548 19.1859 91.2702C20.096 90.7995 21.6337 90.1404 23.4225 89.3559C24.1443 89.0421 24.9288 88.6969 25.7134 88.383C27.0314 87.8182 28.3495 87.2533 29.5106 86.7512L30.609 86.2804C31.7388 85.8097 32.7116 85.3704 33.3706 85.1193C33.8414 84.8996 34.1552 84.7741 34.2493 84.7427C36.1636 83.9895 38.0466 84.6172 39.3332 86.4687C40.5572 88.2261 40.0864 90.7367 39.9295 91.4585C39.6785 92.4941 39.3019 93.2787 38.9253 93.4983C38.5173 93.718 37.0737 94.4712 35.5988 95.2557L31.0484 97.6094C30.4207 97.9232 29.9186 98.1743 29.6675 98.3312L34.469 102.787C34.7201 102.693 35.4732 102.474 36.5089 102.725C36.9482 102.819 37.4503 102.536 37.8269 102.317C38.2035 102.097 38.5801 101.877 38.7684 102.16C39.5529 103.258 38.4859 104.451 38.0152 104.89C38.5173 105.11 39.7098 105.675 40.6199 106.585C41.8438 107.84 42.4401 109.566 42.2204 110.413C42.1263 110.727 42.0007 110.915 41.7811 110.978C41.6869 111.01 41.5928 111.01 41.53 111.01C41.5614 111.418 41.5928 112.108 41.3417 112.39C41.1534 112.61 40.9337 112.673 40.7768 112.673C40.7141 112.861 40.6199 113.206 40.3689 113.332C39.9923 113.552 39.6157 113.426 39.396 113.363C39.2705 113.583 39.0194 113.708 38.7056 113.708ZM35.3791 111.386C35.8812 111.386 36.2892 111.449 36.603 111.763C36.7599 111.92 36.8854 112.077 37.0423 112.234C37.7328 112.987 38.1093 113.395 38.7056 113.395C38.9567 113.395 39.1136 113.3 39.2077 113.112C39.2705 112.955 39.4274 113.018 39.5215 113.049C39.6785 113.112 39.9609 113.206 40.2433 113.049C40.4316 112.955 40.5258 112.579 40.5258 112.453L40.5572 112.296L40.7141 112.328C40.7141 112.328 40.9337 112.359 41.122 112.139C41.3103 111.951 41.2789 111.229 41.1848 110.759L41.122 110.382L41.4359 110.602C41.4359 110.602 41.5614 110.696 41.6869 110.633C41.7811 110.602 41.8752 110.476 41.9066 110.288C42.0949 109.629 41.5928 107.966 40.4002 106.773C39.3019 105.675 37.67 105.047 37.6386 105.047L37.3876 104.953L37.6072 104.796C37.6386 104.796 39.3019 103.415 38.5173 102.317C38.4859 102.254 38.1721 102.442 37.9838 102.568C37.5445 102.819 37.011 103.133 36.4461 103.007C35.2849 102.756 34.5004 103.101 34.5004 103.101L34.4062 103.133L29.1027 98.237L29.2909 98.1429C29.2909 98.1429 29.9186 97.8291 30.8601 97.327L35.4105 94.9733C36.8854 94.2201 38.329 93.467 38.737 93.2473C38.9567 93.1218 39.3332 92.4627 39.5843 91.4271C39.7412 90.7367 40.1806 88.3517 39.0508 86.6884C37.8269 84.9624 36.1009 84.3661 34.3121 85.0879C34.2493 85.1193 33.9355 85.2448 33.4648 85.4645C32.8058 85.7469 31.8643 86.1549 30.7031 86.6256L29.6048 87.0964C28.4436 87.5985 27.1256 88.132 25.8075 88.7282C25.023 89.0735 24.2698 89.3873 23.5166 89.7011C21.7278 90.4856 20.1901 91.1447 19.3114 91.584C17.8678 92.3058 16.8636 93.467 16.4556 94.8478C16.0477 96.1972 16.2673 97.6722 17.0205 98.9902C19.6566 103.572 30.5149 110.351 32.743 111.167C33.5589 111.48 34.2807 111.449 34.9397 111.418C35.0967 111.386 35.2536 111.386 35.3791 111.386Z" fill="#505052"/>
<path d="M29.3851 98.4253C29.3537 98.4253 29.291 98.4253 29.2596 98.3939L26.6549 95.7892C26.5921 95.7264 26.5921 95.6323 26.6549 95.5695C26.7176 95.5068 26.8118 95.5068 26.8745 95.5695L29.4793 98.1743C29.542 98.237 29.542 98.3312 29.4793 98.3939C29.4479 98.4253 29.4165 98.4253 29.3851 98.4253Z" fill="#505052"/>
<path d="M33.5589 103.572C33.4961 103.572 33.4333 103.541 33.4333 103.478C33.4019 103.415 33.4333 103.321 33.4961 103.258L34.3748 102.819C34.4376 102.787 34.5631 102.819 34.5945 102.882C34.6259 102.944 34.5945 103.039 34.5317 103.101L33.653 103.541C33.6216 103.541 33.5902 103.572 33.5589 103.572Z" fill="#505052"/>
<path d="M37.7326 105.078C37.7013 105.078 37.7012 105.078 37.6699 105.078L36.1949 104.513C36.1008 104.482 36.0694 104.388 36.1008 104.325C36.1321 104.262 36.2263 104.2 36.2891 104.231L37.764 104.796C37.8582 104.827 37.8895 104.921 37.8582 104.984C37.8268 105.047 37.7954 105.078 37.7326 105.078Z" fill="#505052"/>
<path d="M35.5047 95.0988C33.967 95.9148 32.2096 96.8248 30.9543 97.4525C31.2054 96.1972 31.2995 93.6552 30.0442 91.2388C29.1341 89.5128 27.3454 88.5399 25.7762 88.5399C27.5023 87.7868 29.2283 87.065 30.6719 86.4687C32.3351 86.4373 33.9984 87.5671 34.8143 89.1676C35.9755 91.4271 35.693 93.7808 35.5047 95.0988Z" fill="#5A558D"/>
<path d="M30.7345 97.7663L30.7973 97.4525C30.8914 96.919 31.3308 94.126 29.8872 91.333C28.9457 89.5128 27.1256 88.6969 25.7447 88.6969H24.9916L25.682 88.4144C27.408 87.6613 29.134 86.9395 30.5776 86.3432H30.6404H30.6718C32.3664 86.3432 34.061 87.4416 34.9397 89.1048C36.0695 91.2702 35.9126 93.467 35.6301 95.1616V95.2244L30.7345 97.7663ZM26.4038 88.4458C27.9415 88.6969 29.4165 89.7325 30.1696 91.2074C31.268 93.2787 31.3935 95.6009 31.1425 97.2014L35.3477 95.0361C35.5988 93.4042 35.7243 91.3016 34.6573 89.2617C33.8414 87.6926 32.2409 86.657 30.6718 86.657C29.4165 87.1591 27.9415 87.7868 26.4038 88.4458Z" fill="#505052"/>
<path d="M41.3417 110.947C41.2789 110.947 41.1848 110.884 41.1848 110.821C40.8082 107.965 38.1407 107.055 38.1093 107.055C38.0152 107.024 37.9838 106.93 38.0152 106.867C38.0466 106.773 38.1407 106.742 38.2035 106.773C38.2349 106.773 41.0906 107.714 41.4672 110.79C41.53 110.853 41.4672 110.947 41.3417 110.947C41.3731 110.947 41.3731 110.947 41.3417 110.947Z" fill="#505052"/>
<path d="M39.3645 113.3C39.2703 113.3 39.2075 113.206 39.2075 113.144C39.3645 111.606 37.9523 110.162 35.8497 109.723C35.7555 109.691 35.7241 109.629 35.7241 109.535C35.7241 109.44 35.8183 109.409 35.9124 109.409C38.2033 109.911 39.6783 111.449 39.5214 113.175C39.5214 113.238 39.4586 113.3 39.3645 113.3Z" fill="#505052"/>
<path d="M91.6159 94.2829C91.5531 94.2829 91.4903 94.2515 91.459 94.1887C91.4276 94.126 91.459 94.0318 91.5217 93.9691C91.5217 93.9691 92.8398 93.3414 93.1536 91.3957C93.1536 91.3016 93.2478 91.2388 93.3419 91.2702C93.436 91.2702 93.4988 91.3643 93.4674 91.4585C93.1222 93.5611 91.71 94.2201 91.6473 94.2515C91.6473 94.2829 91.6159 94.2829 91.6159 94.2829Z" fill="#505052"/>
<path d="M98.1129 87.1912C99.1799 86.7519 100.184 87.913 99.682 88.9173C99.5879 89.1369 100.153 89.6391 99.6193 91.0826C99.5251 91.3651 99.7448 92.4635 99.3996 93.7187C99.2113 94.3464 98.8975 94.6916 98.6778 95.0054C98.5523 95.1623 98.8033 95.6644 98.4268 96.5745C97.956 97.6415 96.5438 97.9867 96.1986 97.3905C95.9476 96.9825 96.4183 96.3235 96.7007 96.041C96.7949 95.9783 96.1986 95.8214 96.1986 95.1309C96.1672 94.3464 97.0146 93.4363 97.0146 93.4363C97.0146 93.4363 96.4183 93.3108 96.4183 92.5262C96.4183 91.4906 97.4853 90.2353 97.4853 90.2353C97.4853 90.2353 96.6694 90.047 97.1087 88.8545C97.3284 88.2896 98.1129 87.1912 98.1129 87.1912Z" fill="white"/>
<path d="M96.794 97.829C96.4488 97.829 96.1978 97.7035 96.0408 97.4838C95.7584 97.0445 96.135 96.4168 96.4802 96.0402C96.3233 95.9147 96.0408 95.6636 96.0095 95.1615C95.9781 94.5339 96.4802 93.8435 96.7313 93.5297C96.4802 93.3727 96.2291 93.0903 96.2291 92.5568C96.2291 91.6781 96.9196 90.7053 97.202 90.3287C97.1078 90.2659 96.9823 90.1718 96.8882 90.0148C96.7313 89.7324 96.7313 89.3244 96.9196 88.8537C97.1392 88.2574 97.9238 87.1591 97.9552 87.1277L97.9865 87.0963L98.0179 87.0649C98.5514 86.8452 99.1477 86.9708 99.5557 87.4101C99.9636 87.8495 100.058 88.4771 99.8067 89.0106C99.8067 89.0106 99.8381 89.1048 99.8381 89.1675C99.9322 89.4814 100.121 90.0776 99.7439 91.1446C99.7126 91.2074 99.7126 91.427 99.7439 91.6467C99.7439 92.1488 99.7753 92.9334 99.5243 93.7807C99.3674 94.377 99.0849 94.7222 98.8339 95.036L98.7711 95.1301C98.7711 95.1301 98.7711 95.2557 98.7711 95.3184C98.7711 95.6009 98.8025 96.0402 98.52 96.6679C98.1748 97.421 97.4217 97.829 96.8568 97.8604C96.8568 97.829 96.8254 97.829 96.794 97.829ZM98.2062 87.316C98.0807 87.5043 97.4217 88.4144 97.2334 88.9165C97.0765 89.2931 97.0765 89.6069 97.202 89.8266C97.3275 90.0462 97.5158 90.0776 97.5158 90.0776L97.7669 90.1404L97.61 90.3287C97.61 90.3287 96.5743 91.5526 96.5743 92.5254C96.5743 93.1531 97.0451 93.2786 97.0451 93.2786L97.2961 93.3414L97.1078 93.5297C97.1078 93.5297 96.2919 94.4084 96.3233 95.0988C96.3233 95.5067 96.5743 95.695 96.6999 95.7892C96.7626 95.8519 96.8568 95.9147 96.8568 95.9775V96.0402L96.794 96.103C96.4802 96.3854 96.1036 96.9503 96.2919 97.2641C96.3861 97.421 96.5743 97.4838 96.8568 97.4524C97.3275 97.421 97.9552 97.0758 98.2376 96.4482C98.4887 95.9147 98.4573 95.5067 98.4573 95.2557C98.4573 95.0988 98.4573 94.9732 98.52 94.8791L98.5828 94.7849C98.8025 94.5025 99.0535 94.1573 99.2104 93.6552C99.4615 92.8392 99.4301 92.1175 99.3987 91.6153C99.3987 91.3329 99.3987 91.1446 99.4301 90.9877C99.7753 90.0462 99.6184 89.5127 99.5243 89.2303C99.4615 89.0734 99.4301 88.9479 99.4929 88.8223C99.6812 88.4144 99.6184 87.9436 99.3046 87.5984C99.1163 87.3474 98.6769 87.1591 98.2062 87.316Z" fill="#505052"/>
<path d="M97.4844 90.4229C97.4217 90.4229 97.3589 90.3601 97.3275 90.2973C97.3275 90.2032 97.3589 90.1404 97.453 90.109C97.6413 90.0777 99.0222 89.6383 99.5557 88.8224C99.587 88.7596 99.7126 88.7282 99.7753 88.791C99.8381 88.8538 99.8695 88.9479 99.8067 89.0107C99.2418 89.8894 97.7669 90.3601 97.4844 90.4229C97.5158 90.4229 97.4844 90.4229 97.4844 90.4229Z" fill="#505052"/>
<path d="M97.0135 93.6238C96.9508 93.6238 96.888 93.5924 96.8566 93.5296C96.8252 93.4355 96.8566 93.3727 96.9508 93.3413C98.1433 92.9334 99.3986 91.2387 99.4613 91.0504C99.4927 90.9877 99.5869 90.9249 99.681 90.9877C99.7438 91.019 99.8065 91.1132 99.7438 91.2073C99.6183 91.5212 98.2688 93.2472 97.0449 93.6865C97.0449 93.5924 97.0449 93.6238 97.0135 93.6238Z" fill="#505052"/>
<path d="M96.8569 96.2285C96.7942 96.2285 96.7314 96.2285 96.7 96.1971C96.6059 96.1658 96.5745 96.0716 96.6059 96.0089C96.6373 95.9147 96.7314 95.8833 96.7942 95.9147C97.1394 96.0402 98.2691 95.2557 98.583 94.9105C98.6457 94.8477 98.7399 94.8477 98.8026 94.9105C98.8654 94.9732 98.8654 95.0674 98.8026 95.1302C98.583 95.3498 97.4846 96.2285 96.8569 96.2285Z" fill="#505052"/>
<path d="M59.764 75.046C59.0108 75.9561 58.038 75.6423 57.9752 75.9247C57.8497 76.3954 57.1279 80.0358 56.0609 80.8203C55.3391 81.3852 54.2407 81.1969 54.2407 81.1969L53.77 82.6719C53.7386 82.7974 53.8014 82.8916 53.9269 82.8916H56.8141C56.971 82.8916 57.0651 83.0799 56.971 83.174C56.4061 83.9272 54.5232 85.8101 50.0355 85.9356C45.3282 86.0612 42.5352 83.8016 41.782 83.0799C41.6879 83.0171 41.7506 82.8602 41.8762 82.8602H47.0856C47.3367 82.8602 47.5563 82.7033 47.6505 82.4522L50.6004 74.8891C50.6004 74.8577 50.6004 74.8263 50.569 74.795C50.318 74.6694 49.9414 74.9205 49.3765 74.7008C48.6861 74.4184 48.184 73.5397 48.4664 72.3785C48.7175 71.2801 49.7217 70.778 50.5377 71.2801C51.1025 71.6254 51.1339 72.1902 51.4477 72.5982C51.4791 72.6296 51.5105 72.6296 51.5105 72.5982L51.6988 72.1275C51.7929 71.8764 52.0126 71.6881 52.2951 71.6254C53.0796 71.4371 54.8056 70.9663 56.0609 70.1504C57.4731 69.2403 58.3832 67.8909 58.697 67.985C59.0108 68.0792 59.1678 69.7424 58.9481 70.9349C58.7598 71.8136 58.3204 72.912 58.2577 73.2572C57.9125 74.4184 59.9523 74.8263 59.764 75.046Z" fill="white"/>
<path d="M49.6267 86.1235C45.0763 86.1235 42.4088 83.9268 41.6556 83.2364C41.5615 83.1736 41.5301 83.0481 41.5928 82.9225C41.6242 82.8284 41.7497 82.7342 41.8439 82.7342H47.0533C47.2416 82.7342 47.3985 82.6087 47.4927 82.4518L50.4112 75.0142C50.3485 75.0142 50.2857 75.0142 50.1916 75.0456C49.9719 75.077 49.6581 75.1084 49.2815 74.9515C48.5911 74.669 47.9634 73.7589 48.2772 72.4409C48.4341 71.8132 48.8107 71.3425 49.3129 71.1542C49.7522 70.9659 50.1916 70.9973 50.5995 71.2484C51.0075 71.4994 51.1644 71.8446 51.3213 72.1584C51.3527 72.2526 51.3841 72.3467 51.4468 72.4095L51.541 72.1584C51.6665 71.8446 51.9176 71.6249 52.2314 71.5622C52.9218 71.4053 54.7106 70.9345 55.9659 70.1186C56.719 69.6479 57.3153 69.0516 57.7547 68.5809C58.2254 68.1101 58.5078 67.8277 58.7275 67.9218C59.1982 68.0474 59.2924 69.9617 59.0727 71.0287C58.9472 71.5936 58.7275 72.284 58.5706 72.7861C58.4764 73.0371 58.4137 73.2568 58.3823 73.351C58.2254 73.9472 58.853 74.2924 59.4807 74.6376C59.7631 74.7945 59.92 74.8573 59.9514 75.0142C59.9514 75.077 59.9514 75.1397 59.92 75.2025C59.3865 75.8302 58.7903 75.9243 58.4137 75.9557C58.3195 75.9871 58.1626 75.9871 58.1312 76.0184C58.1312 76.0812 58.0999 76.2067 58.0371 76.395C57.7547 77.5562 57.127 80.2864 56.1855 81.0082C55.5579 81.4789 54.7106 81.4476 54.3654 81.4162L53.926 82.7656L53.9574 82.797H56.8446C56.9701 82.797 57.0956 82.8598 57.1584 82.9853C57.2212 83.1108 57.1898 83.2364 57.127 83.3305C56.5308 84.1464 54.6164 86.0294 50.066 86.1549C49.8777 86.1235 49.7522 86.1235 49.6267 86.1235ZM41.938 83.0481C42.754 83.8012 45.4842 85.9352 50.0033 85.8097C54.4281 85.6842 56.2483 83.864 56.8446 83.1108L56.8132 83.0794H53.926C53.8319 83.0794 53.7064 83.0167 53.6436 82.9539C53.5808 82.8598 53.5808 82.7656 53.6122 82.6401L54.1143 81.0396L54.2399 81.071C54.2399 81.071 55.2755 81.2593 55.9345 80.7258C56.7818 80.0668 57.4408 77.3365 57.6919 76.3009C57.7233 76.1126 57.7547 75.9557 57.786 75.8929C57.8488 75.7046 58.0371 75.6732 58.2882 75.6419C58.602 75.5791 59.1041 75.5163 59.5434 75.0456C59.4807 75.0142 59.3552 74.9515 59.261 74.8887C58.7275 74.6063 57.786 74.1355 58.0057 73.2568C58.0371 73.1313 58.0999 72.9116 58.194 72.6606C58.3509 72.1584 58.5706 71.4994 58.6961 70.9345C58.9472 69.7106 58.7275 68.2984 58.5392 68.1729C58.4764 68.2043 58.1626 68.4867 57.8802 68.7692C57.4408 69.2085 56.8132 69.8362 56.06 70.3383C54.8361 71.1542 53.1415 71.6249 52.2314 71.8132C52.0117 71.876 51.8548 72.0329 51.7607 72.2212L51.5724 72.6919C51.541 72.7547 51.4782 72.8175 51.4155 72.8175C51.3527 72.8175 51.2899 72.7861 51.2272 72.7547C51.1016 72.5978 51.0389 72.4095 50.9447 72.2526C50.8192 71.9701 50.6937 71.6877 50.3485 71.4994C50.0346 71.3111 49.6894 71.2797 49.3442 71.4053C48.9363 71.5936 48.6224 71.9701 48.4969 72.5036C48.2145 73.6334 48.748 74.418 49.3129 74.6376C49.5953 74.7632 49.8463 74.7318 50.066 74.7004C50.2229 74.669 50.3798 74.669 50.5054 74.7318C50.6309 74.7632 50.6623 74.9201 50.6309 75.0142L47.681 82.5773C47.5554 82.8598 47.273 83.0794 46.9592 83.0794H41.938V83.0481Z" fill="#505052"/>
<path d="M51.7293 73.0372C51.6979 73.0372 51.6979 73.0372 51.6665 73.0372C51.5724 73.0058 51.4155 72.943 51.3213 72.8175C51.2586 72.7547 51.2899 72.6606 51.3527 72.5978C51.4155 72.535 51.5096 72.5664 51.5724 72.6292C51.6351 72.692 51.7293 72.7233 51.7607 72.7547C51.8548 72.7861 51.8862 72.8803 51.8548 72.943C51.8548 73.0058 51.7921 73.0372 51.7293 73.0372Z" fill="#505052"/>
<path d="M49.6266 73.7903C49.5639 73.7903 49.5011 73.7589 49.4697 73.6647C49.4383 73.5706 49.5011 73.5078 49.5952 73.4764C49.9404 73.3823 50.1915 73.4137 50.317 73.4137C50.2856 73.3823 50.2543 73.3195 50.2229 73.2568C50.066 73.0057 49.8777 72.6919 49.7835 72.3153C49.7522 72.2211 49.8149 72.1584 49.9091 72.127C50.0032 72.0956 50.066 72.1584 50.0974 72.2525C50.1915 72.5977 50.3798 72.9116 50.5053 73.1312C50.6309 73.3509 50.725 73.5078 50.6622 73.6333C50.5995 73.7903 50.4426 73.7589 50.3484 73.7589C50.2229 73.7275 50.0346 73.7275 49.6894 73.8216C49.6266 73.7903 49.6266 73.7903 49.6266 73.7903Z" fill="#505052"/>
<path d="M55.3391 73.7516C55.4408 73.2241 55.2473 72.7432 54.907 72.6776C54.5666 72.612 54.2082 72.9864 54.1065 73.514C54.0048 74.0416 54.1983 74.5224 54.5386 74.5881C54.879 74.6537 55.2374 74.2792 55.3391 73.7516Z" fill="#505052"/>
<path d="M57.4408 77.9327C55.5893 77.713 54.8989 76.4891 54.6792 75.987C54.6478 75.9243 54.6478 75.8615 54.7106 75.7987C54.7419 75.736 54.8361 75.7046 54.8989 75.7046L57.8802 76.0812C57.9743 76.0812 58.0371 76.1753 58.0057 76.2695C58.0057 76.3636 57.9115 76.4264 57.8174 76.395L55.0558 76.0498C55.3068 76.5519 55.9658 77.4306 57.4408 77.6189C57.535 77.6189 57.5977 77.713 57.5663 77.8072C57.5977 77.9013 57.535 77.9327 57.4408 77.9327Z" fill="#505052"/>
<path d="M54.2086 81.3534C52.0432 81.0395 50.9135 79.0625 50.9135 77.2737C50.9135 77.1795 50.9762 77.1168 51.0704 77.1168C51.1645 77.1168 51.2273 77.1795 51.2273 77.2737C51.2273 78.9369 52.2629 80.7571 54.24 81.0395C54.3341 81.0395 54.3969 81.1337 54.3655 81.2278C54.3655 81.2906 54.3027 81.3534 54.2086 81.3534Z" fill="#505052"/>
<path d="M73.2889 162.633H60.077C59.7004 162.633 59.3239 162.476 59.1042 162.163L56.1856 158.616C56.0287 158.428 55.7149 158.554 55.7463 158.773C55.8091 159.777 56.1229 161.629 56.217 162.602H46.0492L50.0033 152.999C50.0347 152.999 51.6352 152.968 53.6751 152.968C57.1271 152.968 61.7403 152.968 61.7403 152.968C61.4578 153.689 61.9913 154.474 62.7445 154.474H67.9853C73.3203 154.505 74.7011 158.208 73.2889 162.633Z" fill="#5A558D"/>
<path d="M73.3829 162.79H60.0455C59.6061 162.79 59.2296 162.602 58.9471 162.257L56.0286 158.711C55.9972 158.679 55.9344 158.679 55.9344 158.679C55.9344 158.679 55.8717 158.711 55.8717 158.773C55.903 159.338 56.0286 160.185 56.1227 161.001C56.2169 161.629 56.2796 162.194 56.311 162.602L56.3424 162.759H45.7666L49.8463 152.905C49.909 152.842 49.9091 152.842 53.6435 152.842C57.0956 152.842 61.7087 152.842 61.7087 152.842H61.9284L61.8343 153.062C61.7087 153.344 61.7401 153.658 61.9284 153.94C62.1167 154.191 62.3992 154.348 62.713 154.348H67.9852C70.3075 154.348 72.0649 155.07 73.0377 156.42C74.1361 157.895 74.2616 160.154 73.4457 162.696L73.3829 162.79ZM55.9658 158.365C56.0913 158.365 56.1855 158.428 56.2796 158.522L59.1982 162.068C59.4179 162.319 59.7317 162.476 60.0455 162.476H73.1632C73.9164 160.06 73.7909 157.957 72.7867 156.577C71.8452 155.29 70.2447 154.631 67.9538 154.631H62.713C62.305 154.631 61.9284 154.443 61.6774 154.097C61.4891 153.815 61.4263 153.47 61.4891 153.156C60.5476 153.156 56.6562 153.156 53.6435 153.156C52.7648 153.156 50.5367 153.156 50.066 153.156L46.2373 162.445H55.9972C55.9658 162.037 55.8717 161.535 55.8089 161.001C55.6834 160.185 55.5892 159.338 55.5578 158.773C55.5578 158.585 55.652 158.428 55.8089 158.365C55.8717 158.365 55.903 158.365 55.9658 158.365Z" fill="#505052"/>
<path d="M36.5714 186.013H23.3595C22.9829 186.013 22.6063 185.856 22.3867 185.542L19.4681 181.996C19.3112 181.808 18.9974 181.933 19.0288 182.153C19.0915 183.157 19.4053 185.04 19.4995 185.982H9.33167L13.2858 176.379C13.3172 176.379 14.9177 176.347 16.9575 176.347C20.4096 176.347 25.0228 176.347 25.0228 176.347C24.7403 177.069 25.2738 177.854 26.027 177.854H31.2678C36.6342 177.854 37.9836 181.588 36.5714 186.013Z" fill="#5A558D"/>
<path d="M36.6658 186.17H23.3283C22.889 186.17 22.5124 185.982 22.23 185.636L19.3114 182.09C19.28 182.027 19.2173 182.059 19.2173 182.059C19.1859 182.059 19.1545 182.09 19.1545 182.153C19.1859 182.718 19.3114 183.565 19.4056 184.381C19.4997 185.009 19.5625 185.574 19.5939 186.013L19.6252 186.17H9.04944L13.1291 176.316C13.1919 176.253 13.1919 176.253 16.9264 176.253C20.3784 176.253 24.9916 176.253 24.9916 176.253H25.2113L25.1171 176.473C24.9916 176.755 25.023 177.069 25.2113 177.351C25.3996 177.603 25.682 177.759 25.9958 177.759H31.268C33.5903 177.759 35.3477 178.481 36.3206 179.831C37.3876 181.306 37.5445 183.534 36.7285 186.107L36.6658 186.17ZM19.2486 181.745C19.3742 181.745 19.4683 181.808 19.5625 181.902L22.481 185.448C22.7007 185.699 23.0145 185.856 23.3283 185.856H36.4461C37.1993 183.44 37.0737 181.337 36.0695 179.956C35.128 178.67 33.5275 178.011 31.2366 178.011H25.9958C25.5878 178.011 25.1799 177.791 24.9602 177.477C24.7719 177.195 24.7091 176.849 24.7719 176.536C23.8304 176.536 19.9391 176.536 16.9264 176.536C15.9535 176.536 13.8195 176.536 13.3488 176.536L9.52017 185.825H19.28C19.2486 185.417 19.1545 184.915 19.0917 184.381C18.9662 183.565 18.8721 182.718 18.8407 182.153C18.8407 181.965 18.9348 181.808 19.0917 181.745C19.1545 181.745 19.1859 181.745 19.2486 181.745Z" fill="#505052"/>
<path d="M40.6825 112.641C40.5884 112.641 40.5256 112.579 40.5256 112.484C40.557 111.637 39.7411 108.97 36.948 108.342C36.8539 108.311 36.8225 108.248 36.8225 108.154C36.8539 108.06 36.9167 108.028 37.0108 108.028C39.7724 108.656 40.8708 111.292 40.8394 112.484C40.8394 112.579 40.7767 112.641 40.6825 112.641Z" fill="#505052"/>
<path d="M71.4373 95.695C71.3745 95.695 71.2804 95.6323 71.2804 95.5695C71.2804 95.4754 71.3118 95.4126 71.4059 95.3812L73.1947 95.0674C73.2889 95.0674 73.3516 95.0988 73.383 95.1929C73.4144 95.2871 73.3516 95.3498 73.2575 95.3812L71.4373 95.695Z" fill="#505052"/>
<path d="M87.0968 93.4355C87.034 93.4355 86.9713 93.4041 86.9399 93.3414C86.9085 93.2786 86.9399 93.1844 87.034 93.1217C87.034 93.1217 88.0069 92.6823 88.2579 91.9292C88.2893 91.835 88.3835 91.8036 88.4462 91.835C88.5404 91.8664 88.5717 91.9605 88.5404 92.0233C88.2579 92.902 87.1909 93.3727 87.1282 93.4041C87.1595 93.4355 87.1282 93.4355 87.0968 93.4355Z" fill="#505052"/>
<path d="M128.93 44.3545L130.499 48.1204C130.499 48.1204 133.167 47.5555 135.05 47.7752C141.609 48.5597 143.021 56.6563 149.14 56.6563C153.345 56.6563 156.013 50.882 159.12 49.4384C161.599 48.2773 163.89 48.1204 163.89 48.1204L161.787 44.5742C161.787 44.5742 158.932 44.6997 156.515 45.8295C154.005 47.022 151.055 51.7921 149.046 51.541C146.285 51.1958 143.711 44.7625 137.623 43.6641C133.512 42.9423 128.93 44.3545 128.93 44.3545Z" fill="#5A558D"/>
<path d="M149.139 56.8439C145.97 56.8439 144.087 54.7727 142.079 52.576C140.164 50.5047 138.219 48.3394 135.018 47.9628C133.166 47.7431 130.561 48.2766 130.53 48.308L130.404 48.3394L128.741 44.2911L128.898 44.2283C128.929 44.1969 133.543 42.8161 137.622 43.5693C141.263 44.2283 143.648 46.7703 145.562 48.7787C146.849 50.1282 147.947 51.3207 149.045 51.4462C150.112 51.5717 151.556 50.0968 152.968 48.6532C154.129 47.4607 155.322 46.2681 156.452 45.7346C158.868 44.6049 161.755 44.448 161.787 44.448H161.881L164.172 48.308L163.921 48.3394C163.889 48.3394 161.63 48.5277 159.213 49.6574C158.021 50.2223 156.891 51.4148 155.698 52.7015C153.721 54.71 151.744 56.8439 149.139 56.8439ZM134.045 47.5862C134.39 47.5862 134.735 47.6176 135.08 47.649C138.375 48.0255 140.384 50.2223 142.33 52.3563C144.275 54.4903 146.158 56.5301 149.171 56.5301C151.65 56.5301 153.596 54.4589 155.479 52.4504C156.703 51.1324 157.864 49.9085 159.088 49.3436C161.096 48.4021 163.01 48.1197 163.669 48.0255L161.724 44.7618C161.222 44.7932 158.711 45.0129 156.608 46.0171C155.541 46.5192 154.349 47.7117 153.219 48.8729C151.681 50.442 150.238 51.8856 149.045 51.76C147.853 51.6031 146.692 50.4106 145.374 48.9984C143.491 46.9899 141.137 44.5107 137.591 43.8831C134.013 43.2241 130.028 44.2597 129.18 44.5107L130.624 47.9942C131.032 47.8686 132.57 47.5862 134.045 47.5862Z" fill="#505052"/>
<path d="M151.87 51.7914L149.014 51.7286C148.92 51.7286 148.857 51.6659 148.857 51.5717C148.857 51.4776 148.92 51.4148 149.014 51.4148L151.87 51.4776C151.964 51.4776 152.027 51.5403 152.027 51.6345C152.027 51.7286 151.933 51.7914 151.87 51.7914Z" fill="#505052"/>
</svg>
